<?xml version="1.0" encoding="UTF-8"?><svg id="Layer_1" xmlns="http://www.w3.org/2000/svg" viewBox="0 0 80 80"><defs><style>.cls-1{fill:#fff;}.cls-2{stroke:#000;stroke-miterlimit:10;stroke-width:3px;}.cls-2,.cls-3{fill:none;}.cls-4{fill:#7161f5;}</style></defs><path class="cls-3" d="M20.19,70.98c-3.63,0-7.05-.3-10.16-.89l-4.84-.92L1.79,13.52l4.73-1.48c6.22-1.95,13.31-3.02,19.97-3.02s12.72,1.14,17.14,3.29c6.03,2.93,9.35,7.73,9.35,13.52,0,3.26-.97,6.01-2.47,8.37,4.89,3.02,7.61,7.79,7.61,13.8,0,4.46-1.83,12.76-14.11,18.31-6.56,2.97-15.24,4.67-23.82,4.67Z"/><path class="cls-3" d="M8.42,18.09c5.4-1.69,11.83-2.73,18.08-2.73,11.44,0,20.16,3.58,20.16,10.47,0,4.42-2.99,7.67-8.19,11.18,7.87,.72,13.33,4.1,13.33,10.99,0,11.25-17.17,16.65-31.6,16.65-3.19,0-6.24-.26-8.97-.78l-2.8-45.78Zm14.24,17.49c5.33-.13,9.82-2.73,9.82-6.11,0-2.93-2.67-4.42-6.24-4.42-1.43,0-3.06,.33-4.42,1.04l.85,9.49Zm2.28,18.4c5.85-.13,11.05-2.34,11.05-5.98,0-2.73-2.54-3.77-6.05-3.77-2.15,0-4.36,.39-5.92,1.11l.91,8.65Z"/><path class="cls-2" d="M20.19,70.98c-3.63,0-7.05-.3-10.16-.89l-4.84-.92L1.79,13.52l4.73-1.48c6.22-1.95,13.31-3.02,19.97-3.02s12.72,1.14,17.14,3.29c6.03,2.93,9.35,7.73,9.35,13.52,0,3.26-.97,6.01-2.47,8.37,4.89,3.02,7.61,7.79,7.61,13.8,0,4.46-1.83,12.76-14.11,18.31-6.56,2.97-15.24,4.67-23.82,4.67Z"/><path class="cls-2" d="M8.42,18.09c5.4-1.69,11.83-2.73,18.08-2.73,11.44,0,20.16,3.58,20.16,10.47,0,4.42-2.99,7.67-8.19,11.18,7.87,.72,13.33,4.1,13.33,10.99,0,11.25-17.17,16.65-31.6,16.65-3.19,0-6.24-.26-8.97-.78l-2.8-45.78Zm14.24,17.49c5.33-.13,9.82-2.73,9.82-6.11,0-2.93-2.67-4.42-6.24-4.42-1.43,0-3.06,.33-4.42,1.04l.85,9.49Zm2.28,18.4c5.85-.13,11.05-2.34,11.05-5.98,0-2.73-2.54-3.77-6.05-3.77-2.15,0-4.36,.39-5.92,1.11l.91,8.65Z"/><path class="cls-3" d="M41.38,32.39l4.39-1.7c3.33-1.29,7.3-2,11.16-2,15.69,0,21.28,8.84,21.28,17.11,0,4.56-2.2,8.87-6.05,11.84-2.1,1.62-4.64,2.82-7.51,3.56l1.23,8.28-21.59,1.49-2.91-38.59Z"/><path class="cls-3" d="M50.13,64.23l-2.08-27.62c2.74-1.06,5.92-1.57,8.88-1.57,9.68,0,14.94,3.91,14.94,10.78,0,5.01-4.75,9.9-14.43,9.94l1.17,7.89-8.48,.58Zm6.36-14.94c3.14-.62,6.36-2.05,6.36-4.6,0-2.34-1.83-3.25-3.98-3.25-1.13,0-2.34,.26-3.4,.69l1.02,7.16Z"/><path class="cls-2" d="M41.38,32.39l4.39-1.7c3.33-1.29,7.3-2,11.16-2,15.69,0,21.28,8.84,21.28,17.11,0,4.56-2.2,8.87-6.05,11.84-2.1,1.62-4.64,2.82-7.51,3.56l1.23,8.28-21.59,1.49-2.91-38.59Z"/><path class="cls-2" d="M50.13,64.23l-2.08-27.62c2.74-1.06,5.92-1.57,8.88-1.57,9.68,0,14.94,3.91,14.94,10.78,0,5.01-4.75,9.9-14.43,9.94l1.17,7.89-8.48,.58Zm6.36-14.94c3.14-.62,6.36-2.05,6.36-4.6,0-2.34-1.83-3.25-3.98-3.25-1.13,0-2.34,.26-3.4,.69l1.02,7.16Z"/><path class="cls-1" d="M20.19,70.98c-3.63,0-7.05-.3-10.16-.89l-4.84-.92L1.79,13.52l4.73-1.48c6.22-1.95,13.31-3.02,19.97-3.02s12.72,1.14,17.14,3.29c6.03,2.93,9.35,7.73,9.35,13.52,0,3.26-.97,6.01-2.47,8.37,4.89,3.02,7.61,7.79,7.61,13.8,0,4.46-1.83,12.76-14.11,18.31-6.56,2.97-15.24,4.67-23.82,4.67Z"/><path class="cls-1" d="M8.42,18.09c5.4-1.69,11.83-2.73,18.08-2.73,11.44,0,20.16,3.58,20.16,10.47,0,4.42-2.99,7.67-8.19,11.18,7.87,.72,13.33,4.1,13.33,10.99,0,11.25-17.17,16.65-31.6,16.65-3.19,0-6.24-.26-8.97-.78l-2.8-45.78Zm14.24,17.49c5.33-.13,9.82-2.73,9.82-6.11,0-2.93-2.67-4.42-6.24-4.42-1.43,0-3.06,.33-4.42,1.04l.85,9.49Zm2.28,18.4c5.85-.13,11.05-2.34,11.05-5.98,0-2.73-2.54-3.77-6.05-3.77-2.15,0-4.36,.39-5.92,1.11l.91,8.65Z"/><path class="cls-1" d="M20.19,70.98c-3.63,0-7.05-.3-10.16-.89l-4.84-.92L1.79,13.52l4.73-1.48c6.22-1.95,13.31-3.02,19.97-3.02s12.72,1.14,17.14,3.29c6.03,2.93,9.35,7.73,9.35,13.52,0,3.26-.97,6.01-2.47,8.37,4.89,3.02,7.61,7.79,7.61,13.8,0,4.46-1.83,12.76-14.11,18.31-6.56,2.97-15.24,4.67-23.82,4.67Z"/><path class="cls-1" d="M8.42,18.09c5.4-1.69,11.83-2.73,18.08-2.73,11.44,0,20.16,3.58,20.16,10.47,0,4.42-2.99,7.67-8.19,11.18,7.87,.72,13.33,4.1,13.33,10.99,0,11.25-17.17,16.65-31.6,16.65-3.19,0-6.24-.26-8.97-.78l-2.8-45.78Zm14.24,17.49c5.33-.13,9.82-2.73,9.82-6.11,0-2.93-2.67-4.42-6.24-4.42-1.43,0-3.06,.33-4.42,1.04l.85,9.49Zm2.28,18.4c5.85-.13,11.05-2.34,11.05-5.98,0-2.73-2.54-3.77-6.05-3.77-2.15,0-4.36,.39-5.92,1.11l.91,8.65Z"/><path class="cls-1" d="M41.38,32.39l4.39-1.7c3.33-1.29,7.3-2,11.16-2,15.69,0,21.28,8.84,21.28,17.11,0,4.56-2.2,8.87-6.05,11.84-2.1,1.62-4.64,2.82-7.51,3.56l1.23,8.28-21.59,1.49-2.91-38.59Z"/><path class="cls-1" d="M50.13,64.23l-2.08-27.62c2.74-1.06,5.92-1.57,8.88-1.57,9.68,0,14.94,3.91,14.94,10.78,0,5.01-4.75,9.9-14.43,9.94l1.17,7.89-8.48,.58Zm6.36-14.94c3.14-.62,6.36-2.05,6.36-4.6,0-2.34-1.83-3.25-3.98-3.25-1.13,0-2.34,.26-3.4,.69l1.02,7.16Z"/><path class="cls-1" d="M41.38,32.39l4.39-1.7c3.33-1.29,7.3-2,11.16-2,15.69,0,21.28,8.84,21.28,17.11,0,4.56-2.2,8.87-6.05,11.84-2.1,1.62-4.64,2.82-7.51,3.56l1.23,8.28-21.59,1.49-2.91-38.59Z"/><path class="cls-1" d="M50.13,64.23l-2.08-27.62c2.74-1.06,5.92-1.57,8.88-1.57,9.68,0,14.94,3.91,14.94,10.78,0,5.01-4.75,9.9-14.43,9.94l1.17,7.89-8.48,.58Zm6.36-14.94c3.14-.62,6.36-2.05,6.36-4.6,0-2.34-1.83-3.25-3.98-3.25-1.13,0-2.34,.26-3.4,.69l1.02,7.16Z"/><path class="cls-3" d="M8.42,18.09c5.4-1.69,11.83-2.73,18.08-2.73,11.44,0,20.16,3.58,20.16,10.47,0,4.42-2.99,7.67-8.19,11.18,7.87,.72,13.33,4.1,13.33,10.99,0,11.25-17.17,16.65-31.6,16.65-3.19,0-6.24-.26-8.97-.78l-2.8-45.78Zm14.24,17.49c5.33-.13,9.82-2.73,9.82-6.11,0-2.93-2.67-4.42-6.24-4.42-1.43,0-3.06,.33-4.42,1.04l.85,9.49Zm2.28,18.4c5.85-.13,11.05-2.34,11.05-5.98,0-2.73-2.54-3.77-6.05-3.77-2.15,0-4.36,.39-5.92,1.11l.91,8.65Z"/><path class="cls-2" d="M8.42,18.09c5.4-1.69,11.83-2.73,18.08-2.73,11.44,0,20.16,3.58,20.16,10.47,0,4.42-2.99,7.67-8.19,11.18,7.87,.72,13.33,4.1,13.33,10.99,0,11.25-17.17,16.65-31.6,16.65-3.19,0-6.24-.26-8.97-.78l-2.8-45.78Zm14.24,17.49c5.33-.13,9.82-2.73,9.82-6.11,0-2.93-2.67-4.42-6.24-4.42-1.43,0-3.06,.33-4.42,1.04l.85,9.49Zm2.28,18.4c5.85-.13,11.05-2.34,11.05-5.98,0-2.73-2.54-3.77-6.05-3.77-2.15,0-4.36,.39-5.92,1.11l.91,8.65Z"/><path class="cls-3" d="M50.13,64.23l-2.08-27.62c2.74-1.06,5.92-1.57,8.88-1.57,9.68,0,14.94,3.91,14.94,10.78,0,5.01-4.75,9.9-14.43,9.94l1.17,7.89-8.48,.58Zm6.36-14.94c3.14-.62,6.36-2.05,6.36-4.6,0-2.34-1.83-3.25-3.98-3.25-1.13,0-2.34,.26-3.4,.69l1.02,7.16Z"/><path class="cls-2" d="M50.13,64.23l-2.08-27.62c2.74-1.06,5.92-1.57,8.88-1.57,9.68,0,14.94,3.91,14.94,10.78,0,5.01-4.75,9.9-14.43,9.94l1.17,7.89-8.48,.58Zm6.36-14.94c3.14-.62,6.36-2.05,6.36-4.6,0-2.34-1.83-3.25-3.98-3.25-1.13,0-2.34,.26-3.4,.69l1.02,7.16Z"/><path class="cls-4" d="M8.42,18.09c5.4-1.69,11.83-2.73,18.08-2.73,11.44,0,20.16,3.58,20.16,10.47,0,4.42-2.99,7.67-8.19,11.18,7.87,.72,13.33,4.1,13.33,10.99,0,11.25-17.17,16.65-31.6,16.65-3.19,0-6.24-.26-8.97-.78l-2.8-45.78Zm14.24,17.49c5.33-.13,9.82-2.73,9.82-6.11,0-2.93-2.67-4.42-6.24-4.42-1.43,0-3.06,.33-4.42,1.04l.85,9.49Zm2.28,18.4c5.85-.13,11.05-2.34,11.05-5.98,0-2.73-2.54-3.77-6.05-3.77-2.15,0-4.36,.39-5.92,1.11l.91,8.65Z"/><path class="cls-4" d="M8.42,18.09c5.4-1.69,11.83-2.73,18.08-2.73,11.44,0,20.16,3.58,20.16,10.47,0,4.42-2.99,7.67-8.19,11.18,7.87,.72,13.33,4.1,13.33,10.99,0,11.25-17.17,16.65-31.6,16.65-3.19,0-6.24-.26-8.97-.78l-2.8-45.78Zm14.24,17.49c5.33-.13,9.82-2.73,9.82-6.11,0-2.93-2.67-4.42-6.24-4.42-1.43,0-3.06,.33-4.42,1.04l.85,9.49Zm2.78,18.4c5.58-.13,10.55-2.34,10.55-5.98,0-2.73-2.42-3.77-5.77-3.77-2.05,0-4.16,.39-5.64,1.11l.87,8.65Z"/><path class="cls-4" d="M50.13,64.23l-2.08-27.62c2.74-1.06,5.92-1.57,8.88-1.57,9.68,0,14.94,3.91,14.94,10.78,0,5.01-4.75,9.9-14.43,9.94l1.17,7.89-8.48,.58Zm6.36-14.94c3.14-.62,6.36-2.05,6.36-4.6,0-2.34-1.83-3.25-3.98-3.25-1.13,0-2.34,.26-3.4,.69l1.02,7.16Z"/><path class="cls-4" d="M50.13,64.23l-2.08-27.62c2.74-1.06,5.92-1.57,8.88-1.57,9.68,0,14.94,3.91,14.94,10.78,0,5.01-4.75,9.9-14.43,9.94l1.17,7.89-8.48,.58Zm6.36-14.94c3.14-.62,6.36-2.05,6.36-4.6,0-2.34-1.83-3.25-3.98-3.25-1.13,0-2.34,.26-3.4,.69l1.02,7.16Z"/></svg>