<?xml version="1.0" encoding="UTF-8"?><svg id="Layer_2" xmlns="http://www.w3.org/2000/svg" viewBox="0 0 303.17 125.8"><defs><style>.cls-1{fill:#fff;}.cls-2{stroke:#000;stroke-miterlimit:10;stroke-width:3px;}.cls-2,.cls-3{fill:none;}.cls-4{fill:#7161f5;}</style></defs><g id="Layer_1-2"><g><g><path class="cls-3" d="M20.74,69.67c-3.77,0-7.33-.31-10.56-.93l-5.03-.96L1.63,9.96l4.92-1.54c6.46-2.02,13.83-3.14,20.75-3.14s13.22,1.18,17.81,3.42c6.27,3.05,9.72,8.04,9.72,14.05,0,3.38-1.01,6.25-2.57,8.7,5.08,3.14,7.91,8.09,7.91,14.34,0,4.63-1.91,13.26-14.67,19.03-6.82,3.08-15.84,4.85-24.76,4.85Z"/><path class="cls-3" d="M8.51,14.7c5.61-1.76,12.3-2.84,18.79-2.84,11.89,0,20.95,3.72,20.95,10.88,0,4.6-3.11,7.97-8.51,11.62,8.18,.74,13.85,4.26,13.85,11.42,0,11.69-17.84,17.3-32.84,17.3-3.31,0-6.49-.27-9.33-.81L8.51,14.7Zm14.8,18.18c5.54-.14,10.2-2.84,10.2-6.35,0-3.04-2.77-4.6-6.49-4.6-1.49,0-3.18,.34-4.6,1.08l.88,9.87Zm2.37,19.12c6.08-.14,11.49-2.43,11.49-6.22,0-2.84-2.64-3.92-6.28-3.92-2.23,0-4.53,.41-6.15,1.15l.95,8.99Z"/><polygon class="cls-3" points="47.68 68.77 42.87 7.02 87.81 1.67 89.67 26.52 85.7 26.99 86.95 39.35 91.52 38.89 93.26 69.43 47.68 68.77"/><path class="cls-3" d="M53.78,62.27l-3.85-49.47,31.83-3.78,.88,11.69-18.58,2.16,.68,6.89,14.53-1.08,1.08,10.74-14.26,1.22,1.01,7.3,18.25-1.82,.95,16.62-32.5-.47Z"/><path class="cls-3" d="M106.92,70.41c-5.35,0-10.68-.9-15.4-2.6-5.27-1.9-9.64-4.77-12.65-8.29l-3.41-4,11.56-15.52c-4.69-3.27-7.16-8.05-7.16-13.95,0-8.11,3.91-14.65,11.01-18.43,4.94-2.63,11.41-3.96,19.23-3.96,4.22,0,8.78,.42,13.56,1.25l5.65,.98-.68,20.78c4.55,2.81,9.48,8.26,9.48,18.66,0,8.12-3.76,15.07-10.6,19.57-5.42,3.56-12.73,5.53-20.58,5.53Z"/><path class="cls-3" d="M91.18,45.45c4.87,3.38,10,4.87,14.26,4.87,5.2,0,8.92-2.23,8.92-5.95,0-8.51-27.91-1.96-27.91-18.31,0-12.57,12.16-15.81,23.65-15.81,4.53,0,8.92,.54,12.43,1.15l-.41,12.37c-2.3-1.01-7.5-2.23-12.03-2.23-4.05,0-7.5,1.01-7.5,3.99,0,6.89,28.92-2.91,28.92,19.8,0,12.84-12.16,18.52-24.6,18.52-9.12,0-18.31-3.04-23.04-8.58l7.3-9.8Z"/><path class="cls-3" d="M120.76,8.97l4.56-1.76c5.58-2.16,12.26-3.35,18.8-3.35,10.3,0,18.51,2.17,24.41,6.46,6.42,4.67,9.82,11.6,9.82,20.06,0,10.56-8.11,21.86-25.72,24.43l2.17,14.63-29.31,2.02-4.71-62.48Z"/><path class="cls-3" d="M131.54,64.44l-3.85-51.09c5.07-1.96,10.95-2.91,16.42-2.91,17.91,0,27.64,7.23,27.64,19.93,0,9.26-8.78,18.31-26.69,18.38l2.16,14.6-15.68,1.08Zm11.76-27.64c5.81-1.15,11.76-3.78,11.76-8.51,0-4.32-3.38-6.01-7.37-6.01-2.09,0-4.32,.47-6.28,1.28l1.89,13.24Z"/><path class="cls-3" d="M194.01,69.53c-8.36,0-16.22-3.2-22.12-9.02-6.02-5.93-9.33-13.94-9.33-22.56s3.01-17.33,8.48-23.41c5.88-6.54,14.35-10.14,23.85-10.14s18.09,3.66,24,10.31c5.37,6.04,8.33,14.12,8.33,22.77,0,9.23-3.63,17.58-10.22,23.51-6.13,5.51-14.29,8.55-22.99,8.55Zm1.01-35.75c-2.81,0-4.23,1.76-4.23,5.24,0,3.07,1.45,4.63,4.3,4.63,3.05,0,3.28-4.27,3.28-5.58,0-.04-.04-4.3-3.35-4.3Z"/><path class="cls-3" d="M194.01,62.95c-13.52,0-24.87-10.68-24.87-25s9.53-26.96,25.75-26.96,25.75,12.77,25.75,26.49c0,15.68-12.57,25.48-26.62,25.48Zm10.95-24.87c0-5.27-3.45-10.88-9.93-10.88s-10.81,4.8-10.81,11.83c0,5.68,3.45,11.22,10.88,11.22,6.01,0,9.87-5,9.87-12.16Z"/><polygon class="cls-3" points="237.78 61.43 236.59 72.73 213.38 67.6 211.44 6.06 242.15 6.8 241.88 9.69 243.58 7.33 275.22 8.99 253.11 37.5 271.9 56.08 249.1 73.11 237.78 61.43"/><path class="cls-3" d="M249.8,64.37l-17.1-17.64-1.89,17.97-11.01-2.43-1.55-49.47,16.69,.41-1.89,20.07,13.79-19.19,15.47,.81-17.98,23.18,17.5,17.3-12.03,8.99Z"/><polygon class="cls-3" points="256 68.77 251.19 7.02 296.13 1.67 297.99 26.52 294.02 26.99 295.27 39.35 299.84 38.89 301.58 69.43 256 68.77"/><path class="cls-3" d="M262.1,62.27l-3.85-49.47,31.83-3.78,.88,11.69-18.58,2.16,.68,6.89,14.53-1.08,1.08,10.74-14.26,1.22,1.01,7.3,18.25-1.82,.95,16.62-32.5-.47Z"/><path class="cls-2" d="M20.74,69.67c-3.77,0-7.33-.31-10.56-.93l-5.03-.96L1.63,9.96l4.92-1.54c6.46-2.02,13.83-3.14,20.75-3.14s13.22,1.18,17.81,3.42c6.27,3.05,9.72,8.04,9.72,14.05,0,3.38-1.01,6.25-2.57,8.7,5.08,3.14,7.91,8.09,7.91,14.34,0,4.63-1.91,13.26-14.67,19.03-6.82,3.08-15.84,4.85-24.76,4.85Z"/><path class="cls-2" d="M8.51,14.7c5.61-1.76,12.3-2.84,18.79-2.84,11.89,0,20.95,3.72,20.95,10.88,0,4.6-3.11,7.97-8.51,11.62,8.18,.74,13.85,4.26,13.85,11.42,0,11.69-17.84,17.3-32.84,17.3-3.31,0-6.49-.27-9.33-.81L8.51,14.7Zm14.8,18.18c5.54-.14,10.2-2.84,10.2-6.35,0-3.04-2.77-4.6-6.49-4.6-1.49,0-3.18,.34-4.6,1.08l.88,9.87Zm2.37,19.12c6.08-.14,11.49-2.43,11.49-6.22,0-2.84-2.64-3.92-6.28-3.92-2.23,0-4.53,.41-6.15,1.15l.95,8.99Z"/><polygon class="cls-2" points="47.68 68.77 42.87 7.02 87.81 1.67 89.67 26.52 85.7 26.99 86.95 39.35 91.52 38.89 93.26 69.43 47.68 68.77"/><path class="cls-2" d="M53.78,62.27l-3.85-49.47,31.83-3.78,.88,11.69-18.58,2.16,.68,6.89,14.53-1.08,1.08,10.74-14.26,1.22,1.01,7.3,18.25-1.82,.95,16.62-32.5-.47Z"/><path class="cls-2" d="M106.92,70.41c-5.35,0-10.68-.9-15.4-2.6-5.27-1.9-9.64-4.77-12.65-8.29l-3.41-4,11.56-15.52c-4.69-3.27-7.16-8.05-7.16-13.95,0-8.11,3.91-14.65,11.01-18.43,4.94-2.63,11.41-3.96,19.23-3.96,4.22,0,8.78,.42,13.56,1.25l5.65,.98-.68,20.78c4.55,2.81,9.48,8.26,9.48,18.66,0,8.12-3.76,15.07-10.6,19.57-5.42,3.56-12.73,5.53-20.58,5.53Z"/><path class="cls-2" d="M91.18,45.45c4.87,3.38,10,4.87,14.26,4.87,5.2,0,8.92-2.23,8.92-5.95,0-8.51-27.91-1.96-27.91-18.31,0-12.57,12.16-15.81,23.65-15.81,4.53,0,8.92,.54,12.43,1.15l-.41,12.37c-2.3-1.01-7.5-2.23-12.03-2.23-4.05,0-7.5,1.01-7.5,3.99,0,6.89,28.92-2.91,28.92,19.8,0,12.84-12.16,18.52-24.6,18.52-9.12,0-18.31-3.04-23.04-8.58l7.3-9.8Z"/><path class="cls-2" d="M120.76,8.97l4.56-1.76c5.58-2.16,12.26-3.35,18.8-3.35,10.3,0,18.51,2.17,24.41,6.46,6.42,4.67,9.82,11.6,9.82,20.06,0,10.56-8.11,21.86-25.72,24.43l2.17,14.63-29.31,2.02-4.71-62.48Z"/><path class="cls-2" d="M131.54,64.44l-3.85-51.09c5.07-1.96,10.95-2.91,16.42-2.91,17.91,0,27.64,7.23,27.64,19.93,0,9.26-8.78,18.31-26.69,18.38l2.16,14.6-15.68,1.08Zm11.76-27.64c5.81-1.15,11.76-3.78,11.76-8.51,0-4.32-3.38-6.01-7.37-6.01-2.09,0-4.32,.47-6.28,1.28l1.89,13.24Z"/><path class="cls-2" d="M194.01,69.53c-8.36,0-16.22-3.2-22.12-9.02-6.02-5.93-9.33-13.94-9.33-22.56s3.01-17.33,8.48-23.41c5.88-6.54,14.35-10.14,23.85-10.14s18.09,3.66,24,10.31c5.37,6.04,8.33,14.12,8.33,22.77,0,9.23-3.63,17.58-10.22,23.51-6.13,5.51-14.29,8.55-22.99,8.55Zm1.01-35.75c-2.81,0-4.23,1.76-4.23,5.24,0,3.07,1.45,4.63,4.3,4.63,3.05,0,3.28-4.27,3.28-5.58,0-.04-.04-4.3-3.35-4.3Z"/><path class="cls-2" d="M194.01,62.95c-13.52,0-24.87-10.68-24.87-25s9.53-26.96,25.75-26.96,25.75,12.77,25.75,26.49c0,15.68-12.57,25.48-26.62,25.48Zm10.95-24.87c0-5.27-3.45-10.88-9.93-10.88s-10.81,4.8-10.81,11.83c0,5.68,3.45,11.22,10.88,11.22,6.01,0,9.87-5,9.87-12.16Z"/><polygon class="cls-2" points="237.78 61.43 236.59 72.73 213.38 67.6 211.44 6.06 242.15 6.8 241.88 9.69 243.58 7.33 275.22 8.99 253.11 37.5 271.9 56.08 249.1 73.11 237.78 61.43"/><path class="cls-2" d="M249.8,64.37l-17.1-17.64-1.89,17.97-11.01-2.43-1.55-49.47,16.69,.41-1.89,20.07,13.79-19.19,15.47,.81-17.98,23.18,17.5,17.3-12.03,8.99Z"/><polygon class="cls-2" points="256 68.77 251.19 7.02 296.13 1.67 297.99 26.52 294.02 26.99 295.27 39.35 299.84 38.89 301.58 69.43 256 68.77"/><path class="cls-2" d="M262.1,62.27l-3.85-49.47,31.83-3.78,.88,11.69-18.58,2.16,.68,6.89,14.53-1.08,1.08,10.74-14.26,1.22,1.01,7.3,18.25-1.82,.95,16.62-32.5-.47Z"/></g><g><path class="cls-3" d="M1.58,81.34l4.56-1.76c3.46-1.34,7.58-2.08,11.6-2.08,16.31,0,22.12,9.19,22.12,17.79,0,4.74-2.29,9.22-6.28,12.31-2.18,1.69-4.82,2.93-7.8,3.7l1.27,8.6-22.44,1.55L1.58,81.34Z"/><path class="cls-3" d="M10.68,114.43l-2.16-28.71c2.85-1.1,6.15-1.63,9.23-1.63,10.06,0,15.53,4.06,15.53,11.2,0,5.2-4.94,10.29-15,10.33l1.22,8.2-8.81,.61Zm6.61-15.53c3.27-.65,6.61-2.13,6.61-4.78,0-2.43-1.9-3.38-4.14-3.38-1.18,0-2.43,.27-3.53,.72l1.06,7.44Z"/><path class="cls-3" d="M41.63,119.63l-16.46,2.57-1.04-41.84,5.23-1.21c3.05-.71,6.43-1.08,9.77-1.08s8.46,.46,12.65,2.65c4.91,2.56,7.72,7.04,7.72,12.29,0,3.23-1.02,6.18-3.05,8.83l8.2,10.85-21.26,11.03-1.76-4.09Z"/><path class="cls-3" d="M46.64,114.62l-4.56-10.59c-1.03,.57-2.2,1.03-3.11,1.33l.87,7.9-8.28,1.29-.72-28.97c2.62-.61,5.51-.91,8.28-.91,7.22,0,13.78,2.28,13.78,8.35,0,3.19-1.94,5.81-5.28,8.09l7.06,9.34-8.05,4.18Zm-8.51-15.91c3.84-.61,6.95-2.39,6.95-4.78,0-2.2-1.67-2.85-3.57-2.85-1.48,0-3.11,.38-4.22,.72l.84,6.91Z"/><path class="cls-3" d="M65.24,120.18c-5.46,0-10.59-2.1-14.46-5.9-3.94-3.88-6.1-9.11-6.1-14.73s1.96-11.14,5.51-15.08c3.86-4.29,9.38-6.65,15.55-6.65s11.76,2.4,15.64,6.76c3.49,3.92,5.41,9.15,5.41,14.71,0,6.01-2.38,11.47-6.7,15.36-3.97,3.58-9.25,5.54-14.85,5.54Z"/><path class="cls-3" d="M65.24,113.59c-7.59,0-13.97-6-13.97-14.05s5.35-15.15,14.47-15.15,14.47,7.18,14.47,14.89c0,8.81-7.06,14.32-14.96,14.32Zm6.15-13.97c0-2.96-1.94-6.11-5.58-6.11s-6.08,2.7-6.08,6.65c0,3.19,1.94,6.3,6.11,6.3,3.38,0,5.54-2.81,5.54-6.84Z"/><path class="cls-3" d="M93.35,121.32c-5.43,0-10.84-2.15-14.84-5.89-4.42-4.13-6.85-9.88-6.85-16.19s2.48-11.97,6.99-15.94c4.1-3.62,9.63-5.61,15.55-5.61,4.32,0,8.67,1.05,12.58,3.03l5.82,2.95-3.46,7,3.93-.18,.8,5.98c.13,1,.13,1.87,.13,2.5,0,8.68-3.55,13.9-6.53,16.76-3.75,3.6-8.76,5.58-14.1,5.58Z"/><path class="cls-3" d="M93.43,103.53l-.11-5.54,14.01-.65c.08,.57,.08,1.1,.08,1.63,0,11.01-7.33,15.76-14.05,15.76-7.44,0-15.11-5.81-15.11-15.49s7.37-14.96,15.95-14.96c3.15,0,6.46,.72,9.61,2.32l-3.46,6.99c-2.05-1.03-4.48-1.78-6.72-1.78-3.53,0-6.57,1.86-6.57,7.44,0,4.82,3.65,8.24,6.72,8.24,2.01,0,3.8-1.14,4.48-3.87l-4.82-.08Z"/><path class="cls-3" d="M117.92,119.63l-16.46,2.57-1.04-41.84,5.23-1.21c3.05-.71,6.43-1.08,9.77-1.08s8.46,.46,12.65,2.65c4.91,2.56,7.72,7.04,7.72,12.29,0,3.23-1.02,6.18-3.05,8.83l8.2,10.85-21.26,11.03-1.76-4.09Z"/><path class="cls-3" d="M122.93,114.62l-4.56-10.59c-1.03,.57-2.2,1.03-3.11,1.33l.87,7.9-8.28,1.29-.72-28.97c2.62-.61,5.51-.91,8.28-.91,7.22,0,13.78,2.28,13.78,8.35,0,3.19-1.94,5.81-5.28,8.09l7.06,9.34-8.05,4.18Zm-8.51-15.91c3.84-.61,6.95-2.39,6.95-4.78,0-2.2-1.67-2.85-3.57-2.85-1.48,0-3.11,.38-4.22,.72l.84,6.91Z"/><polygon class="cls-3" points="132.34 78.62 151.82 77.03 166.64 119.49 143.6 120.47 143.31 119.36 120.96 120.53 132.34 78.62"/><path class="cls-3" d="M148.65,113.67l-1.78-6.95-7.33,.27-1.14,6.04-8.7,.46,7.78-28.67,9.8-.8,10.22,29.28-8.85,.38Zm-5.92-20.92l-2.16,8.96h4.97l-2.81-8.96Z"/><polygon class="cls-3" points="147.06 117.18 153.79 77.21 173.36 78.72 173.91 80.24 174.28 79.37 194.21 78.65 198.27 120.34 175.31 119.6 175.29 119.22 169.8 118.88 169.67 120.94 147.06 117.18"/><path class="cls-3" d="M181.5,113.21l-1.1-17.09-6.08,16.44-4.22-.27-5.43-15.84-1.1,16.78-8.92-1.48,4.63-27.53,9.34,.72,4.86,13.33,5.24-12.49,9.53-.34,2.73,28.06-9.49-.3Z"/><polygon class="cls-3" points="181.64 117.18 188.36 77.21 207.93 78.72 208.49 80.24 208.86 79.37 228.78 78.65 232.85 120.34 209.89 119.6 209.86 119.22 204.38 118.88 204.24 120.94 181.64 117.18"/><path class="cls-3" d="M216.07,113.21l-1.1-17.09-6.08,16.44-4.22-.27-5.43-15.84-1.1,16.78-8.92-1.48,4.63-27.53,9.34,.72,4.86,13.33,5.24-12.49,9.53-.34,2.73,28.06-9.49-.3Z"/><polygon class="cls-3" points="218.51 118.62 220.03 98.85 222.98 99.03 223 98.49 220.46 98.49 219.79 78.96 249.57 77.71 249.14 98.49 245.07 98.49 244.94 100.44 247.65 100.59 246.26 121.44 218.51 118.62"/><path class="cls-3" d="M225.57,112.72l.53-6.91,3.19,.19,.57-14.09h-3.04l-.23-6.65,16.25-.68-.15,7.33h-3.76l-1.03,14.73,2.73,.15-.49,7.41-14.58-1.48Z"/><polygon class="cls-3" points="257.68 120.94 237.1 118.83 236.11 81.73 255.26 78.12 255.67 78.91 275.4 77.81 271.75 119.06 258.24 121.82 257.68 120.94"/><path class="cls-3" d="M261.34,114.46l-10.37-16.1,.68,15.34-8.13-.84-.68-25.71,8.85-1.67,7.52,14.32-.57-14.47,9.53-.53-2.54,28.78-4.29,.87Z"/><path class="cls-3" d="M280.55,121.32c-5.43,0-10.84-2.15-14.84-5.89-4.42-4.13-6.85-9.88-6.85-16.19s2.48-11.97,6.99-15.94c4.1-3.62,9.63-5.61,15.55-5.61,4.32,0,8.67,1.05,12.58,3.03l5.82,2.95-3.46,7,3.93-.18,.8,5.98c.13,1,.13,1.87,.13,2.5,0,8.68-3.55,13.9-6.53,16.76-3.75,3.6-8.76,5.58-14.1,5.58Z"/><path class="cls-3" d="M280.63,103.53l-.11-5.54,14.01-.65c.08,.57,.08,1.1,.08,1.63,0,11.01-7.33,15.76-14.05,15.76-7.44,0-15.11-5.81-15.11-15.49s7.37-14.96,15.95-14.96c3.15,0,6.46,.72,9.61,2.32l-3.46,6.99c-2.05-1.03-4.48-1.78-6.72-1.78-3.53,0-6.57,1.86-6.57,7.44,0,4.82,3.65,8.24,6.72,8.24,2.01,0,3.8-1.14,4.48-3.87l-4.82-.08Z"/><path class="cls-2" d="M1.58,81.34l4.56-1.76c3.46-1.34,7.58-2.08,11.6-2.08,16.31,0,22.12,9.19,22.12,17.79,0,4.74-2.29,9.22-6.28,12.31-2.18,1.69-4.82,2.93-7.8,3.7l1.27,8.6-22.44,1.55L1.58,81.34Z"/><path class="cls-2" d="M10.68,114.43l-2.16-28.71c2.85-1.1,6.15-1.63,9.23-1.63,10.06,0,15.53,4.06,15.53,11.2,0,5.2-4.94,10.29-15,10.33l1.22,8.2-8.81,.61Zm6.61-15.53c3.27-.65,6.61-2.13,6.61-4.78,0-2.43-1.9-3.38-4.14-3.38-1.18,0-2.43,.27-3.53,.72l1.06,7.44Z"/><path class="cls-2" d="M41.63,119.63l-16.46,2.57-1.04-41.84,5.23-1.21c3.05-.71,6.43-1.08,9.77-1.08s8.46,.46,12.65,2.65c4.91,2.56,7.72,7.04,7.72,12.29,0,3.23-1.02,6.18-3.05,8.83l8.2,10.85-21.26,11.03-1.76-4.09Z"/><path class="cls-2" d="M46.64,114.62l-4.56-10.59c-1.03,.57-2.2,1.03-3.11,1.33l.87,7.9-8.28,1.29-.72-28.97c2.62-.61,5.51-.91,8.28-.91,7.22,0,13.78,2.28,13.78,8.35,0,3.19-1.94,5.81-5.28,8.09l7.06,9.34-8.05,4.18Zm-8.51-15.91c3.84-.61,6.95-2.39,6.95-4.78,0-2.2-1.67-2.85-3.57-2.85-1.48,0-3.11,.38-4.22,.72l.84,6.91Z"/><path class="cls-2" d="M65.24,120.18c-5.46,0-10.59-2.1-14.46-5.9-3.94-3.88-6.1-9.11-6.1-14.73s1.96-11.14,5.51-15.08c3.86-4.29,9.38-6.65,15.55-6.65s11.76,2.4,15.64,6.76c3.49,3.92,5.41,9.15,5.41,14.71,0,6.01-2.38,11.47-6.7,15.36-3.97,3.58-9.25,5.54-14.85,5.54Z"/><path class="cls-2" d="M65.24,113.59c-7.59,0-13.97-6-13.97-14.05s5.35-15.15,14.47-15.15,14.47,7.18,14.47,14.89c0,8.81-7.06,14.32-14.96,14.32Zm6.15-13.97c0-2.96-1.94-6.11-5.58-6.11s-6.08,2.7-6.08,6.65c0,3.19,1.94,6.3,6.11,6.3,3.38,0,5.54-2.81,5.54-6.84Z"/><path class="cls-2" d="M93.35,121.32c-5.43,0-10.84-2.15-14.84-5.89-4.42-4.13-6.85-9.88-6.85-16.19s2.48-11.97,6.99-15.94c4.1-3.62,9.63-5.61,15.55-5.61,4.32,0,8.67,1.05,12.58,3.03l5.82,2.95-3.46,7,3.93-.18,.8,5.98c.13,1,.13,1.87,.13,2.5,0,8.68-3.55,13.9-6.53,16.76-3.75,3.6-8.76,5.58-14.1,5.58Z"/><path class="cls-2" d="M93.43,103.53l-.11-5.54,14.01-.65c.08,.57,.08,1.1,.08,1.63,0,11.01-7.33,15.76-14.05,15.76-7.44,0-15.11-5.81-15.11-15.49s7.37-14.96,15.95-14.96c3.15,0,6.46,.72,9.61,2.32l-3.46,6.99c-2.05-1.03-4.48-1.78-6.72-1.78-3.53,0-6.57,1.86-6.57,7.44,0,4.82,3.65,8.24,6.72,8.24,2.01,0,3.8-1.14,4.48-3.87l-4.82-.08Z"/><path class="cls-2" d="M117.92,119.63l-16.46,2.57-1.04-41.84,5.23-1.21c3.05-.71,6.43-1.08,9.77-1.08s8.46,.46,12.65,2.65c4.91,2.56,7.72,7.04,7.72,12.29,0,3.23-1.02,6.18-3.05,8.83l8.2,10.85-21.26,11.03-1.76-4.09Z"/><path class="cls-2" d="M122.93,114.62l-4.56-10.59c-1.03,.57-2.2,1.03-3.11,1.33l.87,7.9-8.28,1.29-.72-28.97c2.62-.61,5.51-.91,8.28-.91,7.22,0,13.78,2.28,13.78,8.35,0,3.19-1.94,5.81-5.28,8.09l7.06,9.34-8.05,4.18Zm-8.51-15.91c3.84-.61,6.95-2.39,6.95-4.78,0-2.2-1.67-2.85-3.57-2.85-1.48,0-3.11,.38-4.22,.72l.84,6.91Z"/><polygon class="cls-2" points="132.34 78.62 151.82 77.03 166.64 119.49 143.6 120.47 143.31 119.36 120.96 120.53 132.34 78.62"/><path class="cls-2" d="M148.65,113.67l-1.78-6.95-7.33,.27-1.14,6.04-8.7,.46,7.78-28.67,9.8-.8,10.22,29.28-8.85,.38Zm-5.92-20.92l-2.16,8.96h4.97l-2.81-8.96Z"/><polygon class="cls-2" points="147.06 117.18 153.79 77.21 173.36 78.72 173.91 80.24 174.28 79.37 194.21 78.65 198.27 120.34 175.31 119.6 175.29 119.22 169.8 118.88 169.67 120.94 147.06 117.18"/><path class="cls-2" d="M181.5,113.21l-1.1-17.09-6.08,16.44-4.22-.27-5.43-15.84-1.1,16.78-8.92-1.48,4.63-27.53,9.34,.72,4.86,13.33,5.24-12.49,9.53-.34,2.73,28.06-9.49-.3Z"/><polygon class="cls-2" points="181.64 117.18 188.36 77.21 207.93 78.72 208.49 80.24 208.86 79.37 228.78 78.65 232.85 120.34 209.89 119.6 209.86 119.22 204.38 118.88 204.24 120.94 181.64 117.18"/><path class="cls-2" d="M216.07,113.21l-1.1-17.09-6.08,16.44-4.22-.27-5.43-15.84-1.1,16.78-8.92-1.48,4.63-27.53,9.34,.72,4.86,13.33,5.24-12.49,9.53-.34,2.73,28.06-9.49-.3Z"/><polygon class="cls-2" points="218.51 118.62 220.03 98.85 222.98 99.03 223 98.49 220.46 98.49 219.79 78.96 249.57 77.71 249.14 98.49 245.07 98.49 244.94 100.44 247.65 100.59 246.26 121.44 218.51 118.62"/><path class="cls-2" d="M225.57,112.72l.53-6.91,3.19,.19,.57-14.09h-3.04l-.23-6.65,16.25-.68-.15,7.33h-3.76l-1.03,14.73,2.73,.15-.49,7.41-14.58-1.48Z"/><polygon class="cls-2" points="257.68 120.94 237.1 118.83 236.11 81.73 255.26 78.12 255.67 78.91 275.4 77.81 271.75 119.06 258.24 121.82 257.68 120.94"/><path class="cls-2" d="M261.34,114.46l-10.37-16.1,.68,15.34-8.13-.84-.68-25.71,8.85-1.67,7.52,14.32-.57-14.47,9.53-.53-2.54,28.78-4.29,.87Z"/><path class="cls-2" d="M280.55,121.32c-5.43,0-10.84-2.15-14.84-5.89-4.42-4.13-6.85-9.88-6.85-16.19s2.48-11.97,6.99-15.94c4.1-3.62,9.63-5.61,15.55-5.61,4.32,0,8.67,1.05,12.58,3.03l5.82,2.95-3.46,7,3.93-.18,.8,5.98c.13,1,.13,1.87,.13,2.5,0,8.68-3.55,13.9-6.53,16.76-3.75,3.6-8.76,5.58-14.1,5.58Z"/><path class="cls-2" d="M280.63,103.53l-.11-5.54,14.01-.65c.08,.57,.08,1.1,.08,1.63,0,11.01-7.33,15.76-14.05,15.76-7.44,0-15.11-5.81-15.11-15.49s7.37-14.96,15.95-14.96c3.15,0,6.46,.72,9.61,2.32l-3.46,6.99c-2.05-1.03-4.48-1.78-6.72-1.78-3.53,0-6.57,1.86-6.57,7.44,0,4.82,3.65,8.24,6.72,8.24,2.01,0,3.8-1.14,4.48-3.87l-4.82-.08Z"/></g><g><path class="cls-1" d="M20.74,69.67c-3.77,0-7.33-.31-10.56-.93l-5.03-.96L1.63,9.96l4.92-1.54c6.46-2.02,13.83-3.14,20.75-3.14s13.22,1.18,17.81,3.42c6.27,3.05,9.72,8.04,9.72,14.05,0,3.38-1.01,6.25-2.57,8.7,5.08,3.14,7.91,8.09,7.91,14.34,0,4.63-1.91,13.26-14.67,19.03-6.82,3.08-15.84,4.85-24.76,4.85Z"/><path class="cls-1" d="M8.51,14.7c5.61-1.76,12.3-2.84,18.79-2.84,11.89,0,20.95,3.72,20.95,10.88,0,4.6-3.11,7.97-8.51,11.62,8.18,.74,13.85,4.26,13.85,11.42,0,11.69-17.84,17.3-32.84,17.3-3.31,0-6.49-.27-9.33-.81L8.51,14.7Zm14.8,18.18c5.54-.14,10.2-2.84,10.2-6.35,0-3.04-2.77-4.6-6.49-4.6-1.49,0-3.18,.34-4.6,1.08l.88,9.87Zm2.37,19.12c6.08-.14,11.49-2.43,11.49-6.22,0-2.84-2.64-3.92-6.28-3.92-2.23,0-4.53,.41-6.15,1.15l.95,8.99Z"/><polygon class="cls-1" points="47.68 68.77 42.87 7.02 87.81 1.67 89.67 26.52 85.7 26.99 86.95 39.35 91.52 38.89 93.26 69.43 47.68 68.77"/><path class="cls-1" d="M53.78,62.27l-3.85-49.47,31.83-3.78,.88,11.69-18.58,2.16,.68,6.89,14.53-1.08,1.08,10.74-14.26,1.22,1.01,7.3,18.25-1.82,.95,16.62-32.5-.47Z"/><path class="cls-1" d="M106.92,70.41c-5.35,0-10.68-.9-15.4-2.6-5.27-1.9-9.64-4.77-12.65-8.29l-3.41-4,11.56-15.52c-4.69-3.27-7.16-8.05-7.16-13.95,0-8.11,3.91-14.65,11.01-18.43,4.94-2.63,11.41-3.96,19.23-3.96,4.22,0,8.78,.42,13.56,1.25l5.65,.98-.68,20.78c4.55,2.81,9.48,8.26,9.48,18.66,0,8.12-3.76,15.07-10.6,19.57-5.42,3.56-12.73,5.53-20.58,5.53Z"/><path class="cls-1" d="M91.18,45.45c4.87,3.38,10,4.87,14.26,4.87,5.2,0,8.92-2.23,8.92-5.95,0-8.51-27.91-1.96-27.91-18.31,0-12.57,12.16-15.81,23.65-15.81,4.53,0,8.92,.54,12.43,1.15l-.41,12.37c-2.3-1.01-7.5-2.23-12.03-2.23-4.05,0-7.5,1.01-7.5,3.99,0,6.89,28.92-2.91,28.92,19.8,0,12.84-12.16,18.52-24.6,18.52-9.12,0-18.31-3.04-23.04-8.58l7.3-9.8Z"/><path class="cls-1" d="M120.76,8.97l4.56-1.76c5.58-2.16,12.26-3.35,18.8-3.35,10.3,0,18.51,2.17,24.41,6.46,6.42,4.67,9.82,11.6,9.82,20.06,0,10.56-8.11,21.86-25.72,24.43l2.17,14.63-29.31,2.02-4.71-62.48Z"/><path class="cls-1" d="M131.54,64.44l-3.85-51.09c5.07-1.96,10.95-2.91,16.42-2.91,17.91,0,27.64,7.23,27.64,19.93,0,9.26-8.78,18.31-26.69,18.38l2.16,14.6-15.68,1.08Zm11.76-27.64c5.81-1.15,11.76-3.78,11.76-8.51,0-4.32-3.38-6.01-7.37-6.01-2.09,0-4.32,.47-6.28,1.28l1.89,13.24Z"/><path class="cls-1" d="M194.01,69.53c-8.36,0-16.22-3.2-22.12-9.02-6.02-5.93-9.33-13.94-9.33-22.56s3.01-17.33,8.48-23.41c5.88-6.54,14.35-10.14,23.85-10.14s18.09,3.66,24,10.31c5.37,6.04,8.33,14.12,8.33,22.77,0,9.23-3.63,17.58-10.22,23.51-6.13,5.51-14.29,8.55-22.99,8.55Zm1.01-35.75c-2.81,0-4.23,1.76-4.23,5.24,0,3.07,1.45,4.63,4.3,4.63,3.05,0,3.28-4.27,3.28-5.58,0-.04-.04-4.3-3.35-4.3Z"/><path class="cls-1" d="M194.01,62.95c-13.52,0-24.87-10.68-24.87-25s9.53-26.96,25.75-26.96,25.75,12.77,25.75,26.49c0,15.68-12.57,25.48-26.62,25.48Zm10.95-24.87c0-5.27-3.45-10.88-9.93-10.88s-10.81,4.8-10.81,11.83c0,5.68,3.45,11.22,10.88,11.22,6.01,0,9.87-5,9.87-12.16Z"/><polygon class="cls-1" points="237.78 61.43 236.59 72.73 213.38 67.6 211.44 6.06 242.15 6.8 241.88 9.69 243.58 7.33 275.22 8.99 253.11 37.5 271.9 56.08 249.1 73.11 237.78 61.43"/><path class="cls-1" d="M249.8,64.37l-17.1-17.64-1.89,17.97-11.01-2.43-1.55-49.47,16.69,.41-1.89,20.07,13.79-19.19,15.47,.81-17.98,23.18,17.5,17.3-12.03,8.99Z"/><polygon class="cls-1" points="256 68.77 251.19 7.02 296.13 1.67 297.99 26.52 294.02 26.99 295.27 39.35 299.84 38.89 301.58 69.43 256 68.77"/><path class="cls-1" d="M262.1,62.27l-3.85-49.47,31.83-3.78,.88,11.69-18.58,2.16,.68,6.89,14.53-1.08,1.08,10.74-14.26,1.22,1.01,7.3,18.25-1.82,.95,16.62-32.5-.47Z"/><path class="cls-1" d="M20.74,69.67c-3.77,0-7.33-.31-10.56-.93l-5.03-.96L1.63,9.96l4.92-1.54c6.46-2.02,13.83-3.14,20.75-3.14s13.22,1.18,17.81,3.42c6.27,3.05,9.72,8.04,9.72,14.05,0,3.38-1.01,6.25-2.57,8.7,5.08,3.14,7.91,8.09,7.91,14.34,0,4.63-1.91,13.26-14.67,19.03-6.82,3.08-15.84,4.85-24.76,4.85Z"/><path class="cls-1" d="M8.51,14.7c5.61-1.76,12.3-2.84,18.79-2.84,11.89,0,20.95,3.72,20.95,10.88,0,4.6-3.11,7.97-8.51,11.62,8.18,.74,13.85,4.26,13.85,11.42,0,11.69-17.84,17.3-32.84,17.3-3.31,0-6.49-.27-9.33-.81L8.51,14.7Zm14.8,18.18c5.54-.14,10.2-2.84,10.2-6.35,0-3.04-2.77-4.6-6.49-4.6-1.49,0-3.18,.34-4.6,1.08l.88,9.87Zm2.37,19.12c6.08-.14,11.49-2.43,11.49-6.22,0-2.84-2.64-3.92-6.28-3.92-2.23,0-4.53,.41-6.15,1.15l.95,8.99Z"/><polygon class="cls-1" points="47.68 68.77 42.87 7.02 87.81 1.67 89.67 26.52 85.7 26.99 86.95 39.35 91.52 38.89 93.26 69.43 47.68 68.77"/><path class="cls-1" d="M53.78,62.27l-3.85-49.47,31.83-3.78,.88,11.69-18.58,2.16,.68,6.89,14.53-1.08,1.08,10.74-14.26,1.22,1.01,7.3,18.25-1.82,.95,16.62-32.5-.47Z"/><path class="cls-1" d="M106.92,70.41c-5.35,0-10.68-.9-15.4-2.6-5.27-1.9-9.64-4.77-12.65-8.29l-3.41-4,11.56-15.52c-4.69-3.27-7.16-8.05-7.16-13.95,0-8.11,3.91-14.65,11.01-18.43,4.94-2.63,11.41-3.96,19.23-3.96,4.22,0,8.78,.42,13.56,1.25l5.65,.98-.68,20.78c4.55,2.81,9.48,8.26,9.48,18.66,0,8.12-3.76,15.07-10.6,19.57-5.42,3.56-12.73,5.53-20.58,5.53Z"/><path class="cls-1" d="M91.18,45.45c4.87,3.38,10,4.87,14.26,4.87,5.2,0,8.92-2.23,8.92-5.95,0-8.51-27.91-1.96-27.91-18.31,0-12.57,12.16-15.81,23.65-15.81,4.53,0,8.92,.54,12.43,1.15l-.41,12.37c-2.3-1.01-7.5-2.23-12.03-2.23-4.05,0-7.5,1.01-7.5,3.99,0,6.89,28.92-2.91,28.92,19.8,0,12.84-12.16,18.52-24.6,18.52-9.12,0-18.31-3.04-23.04-8.58l7.3-9.8Z"/><path class="cls-1" d="M120.76,8.97l4.56-1.76c5.58-2.16,12.26-3.35,18.8-3.35,10.3,0,18.51,2.17,24.41,6.46,6.42,4.67,9.82,11.6,9.82,20.06,0,10.56-8.11,21.86-25.72,24.43l2.17,14.63-29.31,2.02-4.71-62.48Z"/><path class="cls-1" d="M131.54,64.44l-3.85-51.09c5.07-1.96,10.95-2.91,16.42-2.91,17.91,0,27.64,7.23,27.64,19.93,0,9.26-8.78,18.31-26.69,18.38l2.16,14.6-15.68,1.08Zm11.76-27.64c5.81-1.15,11.76-3.78,11.76-8.51,0-4.32-3.38-6.01-7.37-6.01-2.09,0-4.32,.47-6.28,1.28l1.89,13.24Z"/><path class="cls-1" d="M194.01,69.53c-8.36,0-16.22-3.2-22.12-9.02-6.02-5.93-9.33-13.94-9.33-22.56s3.01-17.33,8.48-23.41c5.88-6.54,14.35-10.14,23.85-10.14s18.09,3.66,24,10.31c5.37,6.04,8.33,14.12,8.33,22.77,0,9.23-3.63,17.58-10.22,23.51-6.13,5.51-14.29,8.55-22.99,8.55Zm1.01-35.75c-2.81,0-4.23,1.76-4.23,5.24,0,3.07,1.45,4.63,4.3,4.63,3.05,0,3.28-4.27,3.28-5.58,0-.04-.04-4.3-3.35-4.3Z"/><path class="cls-1" d="M194.01,62.95c-13.52,0-24.87-10.68-24.87-25s9.53-26.96,25.75-26.96,25.75,12.77,25.75,26.49c0,15.68-12.57,25.48-26.62,25.48Zm10.95-24.87c0-5.27-3.45-10.88-9.93-10.88s-10.81,4.8-10.81,11.83c0,5.68,3.45,11.22,10.88,11.22,6.01,0,9.87-5,9.87-12.16Z"/><polygon class="cls-1" points="237.78 61.43 236.59 72.73 213.38 67.6 211.44 6.06 242.15 6.8 241.88 9.69 243.58 7.33 275.22 8.99 253.11 37.5 271.9 56.08 249.1 73.11 237.78 61.43"/><path class="cls-1" d="M249.8,64.37l-17.1-17.64-1.89,17.97-11.01-2.43-1.55-49.47,16.69,.41-1.89,20.07,13.79-19.19,15.47,.81-17.98,23.18,17.5,17.3-12.03,8.99Z"/><polygon class="cls-1" points="256 68.77 251.19 7.02 296.13 1.67 297.99 26.52 294.02 26.99 295.27 39.35 299.84 38.89 301.58 69.43 256 68.77"/><path class="cls-1" d="M262.1,62.27l-3.85-49.47,31.83-3.78,.88,11.69-18.58,2.16,.68,6.89,14.53-1.08,1.08,10.74-14.26,1.22,1.01,7.3,18.25-1.82,.95,16.62-32.5-.47Z"/></g><g><path class="cls-1" d="M1.58,81.34l4.56-1.76c3.46-1.34,7.58-2.08,11.6-2.08,16.31,0,22.12,9.19,22.12,17.79,0,4.74-2.29,9.22-6.28,12.31-2.18,1.69-4.82,2.93-7.8,3.7l1.27,8.6-22.44,1.55L1.58,81.34Z"/><path class="cls-1" d="M10.68,114.43l-2.16-28.71c2.85-1.1,6.15-1.63,9.23-1.63,10.06,0,15.53,4.06,15.53,11.2,0,5.2-4.94,10.29-15,10.33l1.22,8.2-8.81,.61Zm6.61-15.53c3.27-.65,6.61-2.13,6.61-4.78,0-2.43-1.9-3.38-4.14-3.38-1.18,0-2.43,.27-3.53,.72l1.06,7.44Z"/><path class="cls-1" d="M41.63,119.63l-16.46,2.57-1.04-41.84,5.23-1.21c3.05-.71,6.43-1.08,9.77-1.08s8.46,.46,12.65,2.65c4.91,2.56,7.72,7.04,7.72,12.29,0,3.23-1.02,6.18-3.05,8.83l8.2,10.85-21.26,11.03-1.76-4.09Z"/><path class="cls-1" d="M46.64,114.62l-4.56-10.59c-1.03,.57-2.2,1.03-3.11,1.33l.87,7.9-8.28,1.29-.72-28.97c2.62-.61,5.51-.91,8.28-.91,7.22,0,13.78,2.28,13.78,8.35,0,3.19-1.94,5.81-5.28,8.09l7.06,9.34-8.05,4.18Zm-8.51-15.91c3.84-.61,6.95-2.39,6.95-4.78,0-2.2-1.67-2.85-3.57-2.85-1.48,0-3.11,.38-4.22,.72l.84,6.91Z"/><path class="cls-1" d="M65.24,120.18c-5.46,0-10.59-2.1-14.46-5.9-3.94-3.88-6.1-9.11-6.1-14.73s1.96-11.14,5.51-15.08c3.86-4.29,9.38-6.65,15.55-6.65s11.76,2.4,15.64,6.76c3.49,3.92,5.41,9.15,5.41,14.71,0,6.01-2.38,11.47-6.7,15.36-3.97,3.58-9.25,5.54-14.85,5.54Z"/><path class="cls-1" d="M65.24,113.59c-7.59,0-13.97-6-13.97-14.05s5.35-15.15,14.47-15.15,14.47,7.18,14.47,14.89c0,8.81-7.06,14.32-14.96,14.32Zm6.15-13.97c0-2.96-1.94-6.11-5.58-6.11s-6.08,2.7-6.08,6.65c0,3.19,1.94,6.3,6.11,6.3,3.38,0,5.54-2.81,5.54-6.84Z"/><path class="cls-1" d="M93.35,121.32c-5.43,0-10.84-2.15-14.84-5.89-4.42-4.13-6.85-9.88-6.85-16.19s2.48-11.97,6.99-15.94c4.1-3.62,9.63-5.61,15.55-5.61,4.32,0,8.67,1.05,12.58,3.03l5.82,2.95-3.46,7,3.93-.18,.8,5.98c.13,1,.13,1.87,.13,2.5,0,8.68-3.55,13.9-6.53,16.76-3.75,3.6-8.76,5.58-14.1,5.58Z"/><path class="cls-1" d="M93.43,103.53l-.11-5.54,14.01-.65c.08,.57,.08,1.1,.08,1.63,0,11.01-7.33,15.76-14.05,15.76-7.44,0-15.11-5.81-15.11-15.49s7.37-14.96,15.95-14.96c3.15,0,6.46,.72,9.61,2.32l-3.46,6.99c-2.05-1.03-4.48-1.78-6.72-1.78-3.53,0-6.57,1.86-6.57,7.44,0,4.82,3.65,8.24,6.72,8.24,2.01,0,3.8-1.14,4.48-3.87l-4.82-.08Z"/><path class="cls-1" d="M117.92,119.63l-16.46,2.57-1.04-41.84,5.23-1.21c3.05-.71,6.43-1.08,9.77-1.08s8.46,.46,12.65,2.65c4.91,2.56,7.72,7.04,7.72,12.29,0,3.23-1.02,6.18-3.05,8.83l8.2,10.85-21.26,11.03-1.76-4.09Z"/><path class="cls-1" d="M122.93,114.62l-4.56-10.59c-1.03,.57-2.2,1.03-3.11,1.33l.87,7.9-8.28,1.29-.72-28.97c2.62-.61,5.51-.91,8.28-.91,7.22,0,13.78,2.28,13.78,8.35,0,3.19-1.94,5.81-5.28,8.09l7.06,9.34-8.05,4.18Zm-8.51-15.91c3.84-.61,6.95-2.39,6.95-4.78,0-2.2-1.67-2.85-3.57-2.85-1.48,0-3.11,.38-4.22,.72l.84,6.91Z"/><polygon class="cls-1" points="132.34 78.62 151.82 77.03 166.64 119.49 143.6 120.47 143.31 119.36 120.96 120.53 132.34 78.62"/><path class="cls-1" d="M148.65,113.67l-1.78-6.95-7.33,.27-1.14,6.04-8.7,.46,7.78-28.67,9.8-.8,10.22,29.28-8.85,.38Zm-5.92-20.92l-2.16,8.96h4.97l-2.81-8.96Z"/><polygon class="cls-1" points="147.06 117.18 153.79 77.21 173.36 78.72 173.91 80.24 174.28 79.37 194.21 78.65 198.27 120.34 175.31 119.6 175.29 119.22 169.8 118.88 169.67 120.94 147.06 117.18"/><path class="cls-1" d="M181.5,113.21l-1.1-17.09-6.08,16.44-4.22-.27-5.43-15.84-1.1,16.78-8.92-1.48,4.63-27.53,9.34,.72,4.86,13.33,5.24-12.49,9.53-.34,2.73,28.06-9.49-.3Z"/><polygon class="cls-1" points="181.64 117.18 188.36 77.21 207.93 78.72 208.49 80.24 208.86 79.37 228.78 78.65 232.85 120.34 209.89 119.6 209.86 119.22 204.38 118.88 204.24 120.94 181.64 117.18"/><path class="cls-1" d="M216.07,113.21l-1.1-17.09-6.08,16.44-4.22-.27-5.43-15.84-1.1,16.78-8.92-1.48,4.63-27.53,9.34,.72,4.86,13.33,5.24-12.49,9.53-.34,2.73,28.06-9.49-.3Z"/><polygon class="cls-1" points="218.51 118.62 220.03 98.85 222.98 99.03 223 98.49 220.46 98.49 219.79 78.96 249.57 77.71 249.14 98.49 245.07 98.49 244.94 100.44 247.65 100.59 246.26 121.44 218.51 118.62"/><path class="cls-1" d="M225.57,112.72l.53-6.91,3.19,.19,.57-14.09h-3.04l-.23-6.65,16.25-.68-.15,7.33h-3.76l-1.03,14.73,2.73,.15-.49,7.41-14.58-1.48Z"/><polygon class="cls-1" points="257.68 120.94 237.1 118.83 236.11 81.73 255.26 78.12 255.67 78.91 275.4 77.81 271.75 119.06 258.24 121.82 257.68 120.94"/><path class="cls-1" d="M261.34,114.46l-10.37-16.1,.68,15.34-8.13-.84-.68-25.71,8.85-1.67,7.52,14.32-.57-14.47,9.53-.53-2.54,28.78-4.29,.87Z"/><path class="cls-1" d="M280.55,121.32c-5.43,0-10.84-2.15-14.84-5.89-4.42-4.13-6.85-9.88-6.85-16.19s2.48-11.97,6.99-15.94c4.1-3.62,9.63-5.61,15.55-5.61,4.32,0,8.67,1.05,12.58,3.03l5.82,2.95-3.46,7,3.93-.18,.8,5.98c.13,1,.13,1.87,.13,2.5,0,8.68-3.55,13.9-6.53,16.76-3.75,3.6-8.76,5.58-14.1,5.58Z"/><path class="cls-1" d="M280.63,103.53l-.11-5.54,14.01-.65c.08,.57,.08,1.1,.08,1.63,0,11.01-7.33,15.76-14.05,15.76-7.44,0-15.11-5.81-15.11-15.49s7.37-14.96,15.95-14.96c3.15,0,6.46,.72,9.61,2.32l-3.46,6.99c-2.05-1.03-4.48-1.78-6.72-1.78-3.53,0-6.57,1.86-6.57,7.44,0,4.82,3.65,8.24,6.72,8.24,2.01,0,3.8-1.14,4.48-3.87l-4.82-.08Z"/><path class="cls-1" d="M1.58,81.34l4.56-1.76c3.46-1.34,7.58-2.08,11.6-2.08,16.31,0,22.12,9.19,22.12,17.79,0,4.74-2.29,9.22-6.28,12.31-2.18,1.69-4.82,2.93-7.8,3.7l1.27,8.6-22.44,1.55L1.58,81.34Z"/><path class="cls-1" d="M10.68,114.43l-2.16-28.71c2.85-1.1,6.15-1.63,9.23-1.63,10.06,0,15.53,4.06,15.53,11.2,0,5.2-4.94,10.29-15,10.33l1.22,8.2-8.81,.61Zm6.61-15.53c3.27-.65,6.61-2.13,6.61-4.78,0-2.43-1.9-3.38-4.14-3.38-1.18,0-2.43,.27-3.53,.72l1.06,7.44Z"/><path class="cls-1" d="M41.63,119.63l-16.46,2.57-1.04-41.84,5.23-1.21c3.05-.71,6.43-1.08,9.77-1.08s8.46,.46,12.65,2.65c4.91,2.56,7.72,7.04,7.72,12.29,0,3.23-1.02,6.18-3.05,8.83l8.2,10.85-21.26,11.03-1.76-4.09Z"/><path class="cls-1" d="M46.64,114.62l-4.56-10.59c-1.03,.57-2.2,1.03-3.11,1.33l.87,7.9-8.28,1.29-.72-28.97c2.62-.61,5.51-.91,8.28-.91,7.22,0,13.78,2.28,13.78,8.35,0,3.19-1.94,5.81-5.28,8.09l7.06,9.34-8.05,4.18Zm-8.51-15.91c3.84-.61,6.95-2.39,6.95-4.78,0-2.2-1.67-2.85-3.57-2.85-1.48,0-3.11,.38-4.22,.72l.84,6.91Z"/><path class="cls-1" d="M65.24,120.18c-5.46,0-10.59-2.1-14.46-5.9-3.94-3.88-6.1-9.11-6.1-14.73s1.96-11.14,5.51-15.08c3.86-4.29,9.38-6.65,15.55-6.65s11.76,2.4,15.64,6.76c3.49,3.92,5.41,9.15,5.41,14.71,0,6.01-2.38,11.47-6.7,15.36-3.97,3.58-9.25,5.54-14.85,5.54Z"/><path class="cls-1" d="M65.24,113.59c-7.59,0-13.97-6-13.97-14.05s5.35-15.15,14.47-15.15,14.47,7.18,14.47,14.89c0,8.81-7.06,14.32-14.96,14.32Zm6.15-13.97c0-2.96-1.94-6.11-5.58-6.11s-6.08,2.7-6.08,6.65c0,3.19,1.94,6.3,6.11,6.3,3.38,0,5.54-2.81,5.54-6.84Z"/><path class="cls-1" d="M93.35,121.32c-5.43,0-10.84-2.15-14.84-5.89-4.42-4.13-6.85-9.88-6.85-16.19s2.48-11.97,6.99-15.94c4.1-3.62,9.63-5.61,15.55-5.61,4.32,0,8.67,1.05,12.58,3.03l5.82,2.95-3.46,7,3.93-.18,.8,5.98c.13,1,.13,1.87,.13,2.5,0,8.68-3.55,13.9-6.53,16.76-3.75,3.6-8.76,5.58-14.1,5.58Z"/><path class="cls-1" d="M93.43,103.53l-.11-5.54,14.01-.65c.08,.57,.08,1.1,.08,1.63,0,11.01-7.33,15.76-14.05,15.76-7.44,0-15.11-5.81-15.11-15.49s7.37-14.96,15.95-14.96c3.15,0,6.46,.72,9.61,2.32l-3.46,6.99c-2.05-1.03-4.48-1.78-6.72-1.78-3.53,0-6.57,1.86-6.57,7.44,0,4.82,3.65,8.24,6.72,8.24,2.01,0,3.8-1.14,4.48-3.87l-4.82-.08Z"/><path class="cls-1" d="M117.92,119.63l-16.46,2.57-1.04-41.84,5.23-1.21c3.05-.71,6.43-1.08,9.77-1.08s8.46,.46,12.65,2.65c4.91,2.56,7.72,7.04,7.72,12.29,0,3.23-1.02,6.18-3.05,8.83l8.2,10.85-21.26,11.03-1.76-4.09Z"/><path class="cls-1" d="M122.93,114.62l-4.56-10.59c-1.03,.57-2.2,1.03-3.11,1.33l.87,7.9-8.28,1.29-.72-28.97c2.62-.61,5.51-.91,8.28-.91,7.22,0,13.78,2.28,13.78,8.35,0,3.19-1.94,5.81-5.28,8.09l7.06,9.34-8.05,4.18Zm-8.51-15.91c3.84-.61,6.95-2.39,6.95-4.78,0-2.2-1.67-2.85-3.57-2.85-1.48,0-3.11,.38-4.22,.72l.84,6.91Z"/><polygon class="cls-1" points="132.34 78.62 151.82 77.03 166.64 119.49 143.6 120.47 143.31 119.36 120.96 120.53 132.34 78.62"/><path class="cls-1" d="M148.65,113.67l-1.78-6.95-7.33,.27-1.14,6.04-8.7,.46,7.78-28.67,9.8-.8,10.22,29.28-8.85,.38Zm-5.92-20.92l-2.16,8.96h4.97l-2.81-8.96Z"/><polygon class="cls-1" points="147.06 117.18 153.79 77.21 173.36 78.72 173.91 80.24 174.28 79.37 194.21 78.65 198.27 120.34 175.31 119.6 175.29 119.22 169.8 118.88 169.67 120.94 147.06 117.18"/><path class="cls-1" d="M181.5,113.21l-1.1-17.09-6.08,16.44-4.22-.27-5.43-15.84-1.1,16.78-8.92-1.48,4.63-27.53,9.34,.72,4.86,13.33,5.24-12.49,9.53-.34,2.73,28.06-9.49-.3Z"/><polygon class="cls-1" points="181.64 117.18 188.36 77.21 207.93 78.72 208.49 80.24 208.86 79.37 228.78 78.65 232.85 120.34 209.89 119.6 209.86 119.22 204.38 118.88 204.24 120.94 181.64 117.18"/><path class="cls-1" d="M216.07,113.21l-1.1-17.09-6.08,16.44-4.22-.27-5.43-15.84-1.1,16.78-8.92-1.48,4.63-27.53,9.34,.72,4.86,13.33,5.24-12.49,9.53-.34,2.73,28.06-9.49-.3Z"/><polygon class="cls-1" points="218.51 118.62 220.03 98.85 222.98 99.03 223 98.49 220.46 98.49 219.79 78.96 249.57 77.71 249.14 98.49 245.07 98.49 244.94 100.44 247.65 100.59 246.26 121.44 218.51 118.62"/><path class="cls-1" d="M225.57,112.72l.53-6.91,3.19,.19,.57-14.09h-3.04l-.23-6.65,16.25-.68-.15,7.33h-3.76l-1.03,14.73,2.73,.15-.49,7.41-14.58-1.48Z"/><polygon class="cls-1" points="257.68 120.94 237.1 118.83 236.11 81.73 255.26 78.12 255.67 78.91 275.4 77.81 271.75 119.06 258.24 121.82 257.68 120.94"/><path class="cls-1" d="M261.34,114.46l-10.37-16.1,.68,15.34-8.13-.84-.68-25.71,8.85-1.67,7.52,14.32-.57-14.47,9.53-.53-2.54,28.78-4.29,.87Z"/><path class="cls-1" d="M280.55,121.32c-5.43,0-10.84-2.15-14.84-5.89-4.42-4.13-6.85-9.88-6.85-16.19s2.48-11.97,6.99-15.94c4.1-3.62,9.63-5.61,15.55-5.61,4.32,0,8.67,1.05,12.58,3.03l5.82,2.95-3.46,7,3.93-.18,.8,5.98c.13,1,.13,1.87,.13,2.5,0,8.68-3.55,13.9-6.53,16.76-3.75,3.6-8.76,5.58-14.1,5.58Z"/><path class="cls-1" d="M280.63,103.53l-.11-5.54,14.01-.65c.08,.57,.08,1.1,.08,1.63,0,11.01-7.33,15.76-14.05,15.76-7.44,0-15.11-5.81-15.11-15.49s7.37-14.96,15.95-14.96c3.15,0,6.46,.72,9.61,2.32l-3.46,6.99c-2.05-1.03-4.48-1.78-6.72-1.78-3.53,0-6.57,1.86-6.57,7.44,0,4.82,3.65,8.24,6.72,8.24,2.01,0,3.8-1.14,4.48-3.87l-4.82-.08Z"/></g><g><path class="cls-3" d="M8.51,14.7c5.61-1.76,12.3-2.84,18.79-2.84,11.89,0,20.95,3.72,20.95,10.88,0,4.6-3.11,7.97-8.51,11.62,8.18,.74,13.85,4.26,13.85,11.42,0,11.69-17.84,17.3-32.84,17.3-3.31,0-6.49-.27-9.33-.81L8.51,14.7Zm14.8,18.18c5.54-.14,10.2-2.84,10.2-6.35,0-3.04-2.77-4.6-6.49-4.6-1.49,0-3.18,.34-4.6,1.08l.88,9.87Zm2.37,19.12c6.08-.14,11.49-2.43,11.49-6.22,0-2.84-2.64-3.92-6.28-3.92-2.23,0-4.53,.41-6.15,1.15l.95,8.99Z"/><path class="cls-3" d="M53.78,62.27l-3.85-49.47,31.83-3.78,.88,11.69-18.58,2.16,.68,6.89,14.53-1.08,1.08,10.74-14.26,1.22,1.01,7.3,18.25-1.82,.95,16.62-32.5-.47Z"/><path class="cls-3" d="M91.18,45.45c4.87,3.38,10,4.87,14.26,4.87,5.2,0,8.92-2.23,8.92-5.95,0-8.51-27.91-1.96-27.91-18.31,0-12.57,12.16-15.81,23.65-15.81,4.53,0,8.92,.54,12.43,1.15l-.41,12.37c-2.3-1.01-7.5-2.23-12.03-2.23-4.05,0-7.5,1.01-7.5,3.99,0,6.89,28.92-2.91,28.92,19.8,0,12.84-12.16,18.52-24.6,18.52-9.12,0-18.31-3.04-23.04-8.58l7.3-9.8Z"/><path class="cls-3" d="M131.54,64.44l-3.85-51.09c5.07-1.96,10.95-2.91,16.42-2.91,17.91,0,27.64,7.23,27.64,19.93,0,9.26-8.78,18.31-26.69,18.38l2.16,14.6-15.68,1.08Zm11.76-27.64c5.81-1.15,11.76-3.78,11.76-8.51,0-4.32-3.38-6.01-7.37-6.01-2.09,0-4.32,.47-6.28,1.28l1.89,13.24Z"/><path class="cls-3" d="M194.01,62.95c-13.52,0-24.87-10.68-24.87-25s9.53-26.96,25.75-26.96,25.75,12.77,25.75,26.49c0,15.68-12.57,25.48-26.62,25.48Zm10.95-24.87c0-5.27-3.45-10.88-9.93-10.88s-10.81,4.8-10.81,11.83c0,5.68,3.45,11.22,10.88,11.22,6.01,0,9.87-5,9.87-12.16Z"/><path class="cls-3" d="M249.8,64.37l-17.1-17.64-1.89,17.97-11.01-2.43-1.55-49.47,16.69,.41-1.89,20.07,13.79-19.19,15.47,.81-17.98,23.18,17.5,17.3-12.03,8.99Z"/><path class="cls-3" d="M262.1,62.27l-3.85-49.47,31.83-3.78,.88,11.69-18.58,2.16,.68,6.89,14.53-1.08,1.08,10.74-14.26,1.22,1.01,7.3,18.25-1.82,.95,16.62-32.5-.47Z"/><path class="cls-2" d="M8.51,14.7c5.61-1.76,12.3-2.84,18.79-2.84,11.89,0,20.95,3.72,20.95,10.88,0,4.6-3.11,7.97-8.51,11.62,8.18,.74,13.85,4.26,13.85,11.42,0,11.69-17.84,17.3-32.84,17.3-3.31,0-6.49-.27-9.33-.81L8.51,14.7Zm14.8,18.18c5.54-.14,10.2-2.84,10.2-6.35,0-3.04-2.77-4.6-6.49-4.6-1.49,0-3.18,.34-4.6,1.08l.88,9.87Zm2.37,19.12c6.08-.14,11.49-2.43,11.49-6.22,0-2.84-2.64-3.92-6.28-3.92-2.23,0-4.53,.41-6.15,1.15l.95,8.99Z"/><path class="cls-2" d="M53.78,62.27l-3.85-49.47,31.83-3.78,.88,11.69-18.58,2.16,.68,6.89,14.53-1.08,1.08,10.74-14.26,1.22,1.01,7.3,18.25-1.82,.95,16.62-32.5-.47Z"/><path class="cls-2" d="M91.18,45.45c4.87,3.38,10,4.87,14.26,4.87,5.2,0,8.92-2.23,8.92-5.95,0-8.51-27.91-1.96-27.91-18.31,0-12.57,12.16-15.81,23.65-15.81,4.53,0,8.92,.54,12.43,1.15l-.41,12.37c-2.3-1.01-7.5-2.23-12.03-2.23-4.05,0-7.5,1.01-7.5,3.99,0,6.89,28.92-2.91,28.92,19.8,0,12.84-12.16,18.52-24.6,18.52-9.12,0-18.31-3.04-23.04-8.58l7.3-9.8Z"/><path class="cls-2" d="M131.54,64.44l-3.85-51.09c5.07-1.96,10.95-2.91,16.42-2.91,17.91,0,27.64,7.23,27.64,19.93,0,9.26-8.78,18.31-26.69,18.38l2.16,14.6-15.68,1.08Zm11.76-27.64c5.81-1.15,11.76-3.78,11.76-8.51,0-4.32-3.38-6.01-7.37-6.01-2.09,0-4.32,.47-6.28,1.28l1.89,13.24Z"/><path class="cls-2" d="M194.01,62.95c-13.52,0-24.87-10.68-24.87-25s9.53-26.96,25.75-26.96,25.75,12.77,25.75,26.49c0,15.68-12.57,25.48-26.62,25.48Zm10.95-24.87c0-5.27-3.45-10.88-9.93-10.88s-10.81,4.8-10.81,11.83c0,5.68,3.45,11.22,10.88,11.22,6.01,0,9.87-5,9.87-12.16Z"/><path class="cls-2" d="M249.8,64.37l-17.1-17.64-1.89,17.97-11.01-2.43-1.55-49.47,16.69,.41-1.89,20.07,13.79-19.19,15.47,.81-17.98,23.18,17.5,17.3-12.03,8.99Z"/><path class="cls-2" d="M262.1,62.27l-3.85-49.47,31.83-3.78,.88,11.69-18.58,2.16,.68,6.89,14.53-1.08,1.08,10.74-14.26,1.22,1.01,7.3,18.25-1.82,.95,16.62-32.5-.47Z"/></g><g><path class="cls-3" d="M10.68,114.43l-2.16-28.71c2.85-1.1,6.15-1.63,9.23-1.63,10.06,0,15.53,4.06,15.53,11.2,0,5.2-4.94,10.29-15,10.33l1.22,8.2-8.81,.61Zm6.61-15.53c3.27-.65,6.61-2.13,6.61-4.78,0-2.43-1.9-3.38-4.14-3.38-1.18,0-2.43,.27-3.53,.72l1.06,7.44Z"/><path class="cls-3" d="M46.64,114.62l-4.56-10.59c-1.03,.57-2.2,1.03-3.11,1.33l.87,7.9-8.28,1.29-.72-28.97c2.62-.61,5.51-.91,8.28-.91,7.22,0,13.78,2.28,13.78,8.35,0,3.19-1.94,5.81-5.28,8.09l7.06,9.34-8.05,4.18Zm-8.51-15.91c3.84-.61,6.95-2.39,6.95-4.78,0-2.2-1.67-2.85-3.57-2.85-1.48,0-3.11,.38-4.22,.72l.84,6.91Z"/><path class="cls-3" d="M65.24,113.59c-7.59,0-13.97-6-13.97-14.05s5.35-15.15,14.47-15.15,14.47,7.18,14.47,14.89c0,8.81-7.06,14.32-14.96,14.32Zm6.15-13.97c0-2.96-1.94-6.11-5.58-6.11s-6.08,2.7-6.08,6.65c0,3.19,1.94,6.3,6.11,6.3,3.38,0,5.54-2.81,5.54-6.84Z"/><path class="cls-3" d="M93.43,103.53l-.11-5.54,14.01-.65c.08,.57,.08,1.1,.08,1.63,0,11.01-7.33,15.76-14.05,15.76-7.44,0-15.11-5.81-15.11-15.49s7.37-14.96,15.95-14.96c3.15,0,6.46,.72,9.61,2.32l-3.46,6.99c-2.05-1.03-4.48-1.78-6.72-1.78-3.53,0-6.57,1.86-6.57,7.44,0,4.82,3.65,8.24,6.72,8.24,2.01,0,3.8-1.14,4.48-3.87l-4.82-.08Z"/><path class="cls-3" d="M122.93,114.62l-4.56-10.59c-1.03,.57-2.2,1.03-3.11,1.33l.87,7.9-8.28,1.29-.72-28.97c2.62-.61,5.51-.91,8.28-.91,7.22,0,13.78,2.28,13.78,8.35,0,3.19-1.94,5.81-5.28,8.09l7.06,9.34-8.05,4.18Zm-8.51-15.91c3.84-.61,6.95-2.39,6.95-4.78,0-2.2-1.67-2.85-3.57-2.85-1.48,0-3.11,.38-4.22,.72l.84,6.91Z"/><path class="cls-3" d="M148.65,113.67l-1.78-6.95-7.33,.27-1.14,6.04-8.7,.46,7.78-28.67,9.8-.8,10.22,29.28-8.85,.38Zm-5.92-20.92l-2.16,8.96h4.97l-2.81-8.96Z"/><path class="cls-3" d="M181.5,113.21l-1.1-17.09-6.08,16.44-4.22-.27-5.43-15.84-1.1,16.78-8.92-1.48,4.63-27.53,9.34,.72,4.86,13.33,5.24-12.49,9.53-.34,2.73,28.06-9.49-.3Z"/><path class="cls-3" d="M216.07,113.21l-1.1-17.09-6.08,16.44-4.22-.27-5.43-15.84-1.1,16.78-8.92-1.48,4.63-27.53,9.34,.72,4.86,13.33,5.24-12.49,9.53-.34,2.73,28.06-9.49-.3Z"/><path class="cls-3" d="M225.57,112.72l.53-6.91,3.19,.19,.57-14.09h-3.04l-.23-6.65,16.25-.68-.15,7.33h-3.76l-1.03,14.73,2.73,.15-.49,7.41-14.58-1.48Z"/><path class="cls-3" d="M261.34,114.46l-10.37-16.1,.68,15.34-8.13-.84-.68-25.71,8.85-1.67,7.52,14.32-.57-14.47,9.53-.53-2.54,28.78-4.29,.87Z"/><path class="cls-3" d="M280.63,103.53l-.11-5.54,14.01-.65c.08,.57,.08,1.1,.08,1.63,0,11.01-7.33,15.76-14.05,15.76-7.44,0-15.11-5.81-15.11-15.49s7.37-14.96,15.95-14.96c3.15,0,6.46,.72,9.61,2.32l-3.46,6.99c-2.05-1.03-4.48-1.78-6.72-1.78-3.53,0-6.57,1.86-6.57,7.44,0,4.82,3.65,8.24,6.72,8.24,2.01,0,3.8-1.14,4.48-3.87l-4.82-.08Z"/><path class="cls-2" d="M10.68,114.43l-2.16-28.71c2.85-1.1,6.15-1.63,9.23-1.63,10.06,0,15.53,4.06,15.53,11.2,0,5.2-4.94,10.29-15,10.33l1.22,8.2-8.81,.61Zm6.61-15.53c3.27-.65,6.61-2.13,6.61-4.78,0-2.43-1.9-3.38-4.14-3.38-1.18,0-2.43,.27-3.53,.72l1.06,7.44Z"/><path class="cls-2" d="M46.64,114.62l-4.56-10.59c-1.03,.57-2.2,1.03-3.11,1.33l.87,7.9-8.28,1.29-.72-28.97c2.62-.61,5.51-.91,8.28-.91,7.22,0,13.78,2.28,13.78,8.35,0,3.19-1.94,5.81-5.28,8.09l7.06,9.34-8.05,4.18Zm-8.51-15.91c3.84-.61,6.95-2.39,6.95-4.78,0-2.2-1.67-2.85-3.57-2.85-1.48,0-3.11,.38-4.22,.72l.84,6.91Z"/><path class="cls-2" d="M65.24,113.59c-7.59,0-13.97-6-13.97-14.05s5.35-15.15,14.47-15.15,14.47,7.18,14.47,14.89c0,8.81-7.06,14.32-14.96,14.32Zm6.15-13.97c0-2.96-1.94-6.11-5.58-6.11s-6.08,2.7-6.08,6.65c0,3.19,1.94,6.3,6.11,6.3,3.38,0,5.54-2.81,5.54-6.84Z"/><path class="cls-2" d="M93.43,103.53l-.11-5.54,14.01-.65c.08,.57,.08,1.1,.08,1.63,0,11.01-7.33,15.76-14.05,15.76-7.44,0-15.11-5.81-15.11-15.49s7.37-14.96,15.95-14.96c3.15,0,6.46,.72,9.61,2.32l-3.46,6.99c-2.05-1.03-4.48-1.78-6.72-1.78-3.53,0-6.57,1.86-6.57,7.44,0,4.82,3.65,8.24,6.72,8.24,2.01,0,3.8-1.14,4.48-3.87l-4.82-.08Z"/><path class="cls-2" d="M122.93,114.62l-4.56-10.59c-1.03,.57-2.2,1.03-3.11,1.33l.87,7.9-8.28,1.29-.72-28.97c2.62-.61,5.51-.91,8.28-.91,7.22,0,13.78,2.28,13.78,8.35,0,3.19-1.94,5.81-5.28,8.09l7.06,9.34-8.05,4.18Zm-8.51-15.91c3.84-.61,6.95-2.39,6.95-4.78,0-2.2-1.67-2.85-3.57-2.85-1.48,0-3.11,.38-4.22,.72l.84,6.91Z"/><path class="cls-2" d="M148.65,113.67l-1.78-6.95-7.33,.27-1.14,6.04-8.7,.46,7.78-28.67,9.8-.8,10.22,29.28-8.85,.38Zm-5.92-20.92l-2.16,8.96h4.97l-2.81-8.96Z"/><path class="cls-2" d="M181.5,113.21l-1.1-17.09-6.08,16.44-4.22-.27-5.43-15.84-1.1,16.78-8.92-1.48,4.63-27.53,9.34,.72,4.86,13.33,5.24-12.49,9.53-.34,2.73,28.06-9.49-.3Z"/><path class="cls-2" d="M216.07,113.21l-1.1-17.09-6.08,16.44-4.22-.27-5.43-15.84-1.1,16.78-8.92-1.48,4.63-27.53,9.34,.72,4.86,13.33,5.24-12.49,9.53-.34,2.73,28.06-9.49-.3Z"/><path class="cls-2" d="M225.57,112.72l.53-6.91,3.19,.19,.57-14.09h-3.04l-.23-6.65,16.25-.68-.15,7.33h-3.76l-1.03,14.73,2.73,.15-.49,7.41-14.58-1.48Z"/><path class="cls-2" d="M261.34,114.46l-10.37-16.1,.68,15.34-8.13-.84-.68-25.71,8.85-1.67,7.52,14.32-.57-14.47,9.53-.53-2.54,28.78-4.29,.87Z"/><path class="cls-2" d="M280.63,103.53l-.11-5.54,14.01-.65c.08,.57,.08,1.1,.08,1.63,0,11.01-7.33,15.76-14.05,15.76-7.44,0-15.11-5.81-15.11-15.49s7.37-14.96,15.95-14.96c3.15,0,6.46,.72,9.61,2.32l-3.46,6.99c-2.05-1.03-4.48-1.78-6.72-1.78-3.53,0-6.57,1.86-6.57,7.44,0,4.82,3.65,8.24,6.72,8.24,2.01,0,3.8-1.14,4.48-3.87l-4.82-.08Z"/></g><g><path class="cls-4" d="M8.51,14.7c5.61-1.76,12.3-2.84,18.79-2.84,11.89,0,20.95,3.72,20.95,10.88,0,4.6-3.11,7.97-8.51,11.62,8.18,.74,13.85,4.26,13.85,11.42,0,11.69-17.84,17.3-32.84,17.3-3.31,0-6.49-.27-9.33-.81L8.51,14.7Zm14.8,18.18c5.54-.14,10.2-2.84,10.2-6.35,0-3.04-2.77-4.6-6.49-4.6-1.49,0-3.18,.34-4.6,1.08l.88,9.87Zm2.37,19.12c6.08-.14,11.49-2.43,11.49-6.22,0-2.84-2.64-3.92-6.28-3.92-2.23,0-4.53,.41-6.15,1.15l.95,8.99Z"/><path class="cls-4" d="M53.78,62.27l-3.85-49.47,31.83-3.78,.88,11.69-18.58,2.16,.68,6.89,14.53-1.08,1.08,10.74-14.26,1.22,1.01,7.3,18.25-1.82,.95,16.62-32.5-.47Z"/><path class="cls-4" d="M91.18,45.45c4.87,3.38,10,4.87,14.26,4.87,5.2,0,8.92-2.23,8.92-5.95,0-8.51-27.91-1.96-27.91-18.31,0-12.57,12.16-15.81,23.65-15.81,4.53,0,8.92,.54,12.43,1.15l-.41,12.37c-2.3-1.01-7.5-2.23-12.03-2.23-4.05,0-7.5,1.01-7.5,3.99,0,6.89,28.92-2.91,28.92,19.8,0,12.84-12.16,18.52-24.6,18.52-9.12,0-18.31-3.04-23.04-8.58l7.3-9.8Z"/><path class="cls-4" d="M131.54,64.44l-3.85-51.09c5.07-1.96,10.95-2.91,16.42-2.91,17.91,0,27.64,7.23,27.64,19.93,0,9.26-8.78,18.31-26.69,18.38l2.16,14.6-15.68,1.08Zm11.76-27.64c5.81-1.15,11.76-3.78,11.76-8.51,0-4.32-3.38-6.01-7.37-6.01-2.09,0-4.32,.47-6.28,1.28l1.89,13.24Z"/><path class="cls-4" d="M194.01,62.95c-13.52,0-24.87-10.68-24.87-25s9.53-26.96,25.75-26.96,25.75,12.77,25.75,26.49c0,15.68-12.57,25.48-26.62,25.48Zm10.95-24.87c0-5.27-3.45-10.88-9.93-10.88s-10.81,4.8-10.81,11.83c0,5.68,3.45,11.22,10.88,11.22,6.01,0,9.87-5,9.87-12.16Z"/><path class="cls-4" d="M249.8,64.37l-17.1-17.64-1.89,17.97-11.01-2.43-1.55-49.47,16.69,.41-1.89,20.07,13.79-19.19,15.47,.81-17.98,23.18,17.5,17.3-12.03,8.99Z"/><path class="cls-4" d="M262.1,62.27l-3.85-49.47,31.83-3.78,.88,11.69-18.58,2.16,.68,6.89,14.53-1.08,1.08,10.74-14.26,1.22,1.01,7.3,18.25-1.82,.95,16.62-32.5-.47Z"/><path class="cls-4" d="M8.51,14.7c5.61-1.76,12.3-2.84,18.79-2.84,11.89,0,20.95,3.72,20.95,10.88,0,4.6-3.11,7.97-8.51,11.62,8.18,.74,13.85,4.26,13.85,11.42,0,11.69-17.84,17.3-32.84,17.3-3.31,0-6.49-.27-9.33-.81L8.51,14.7Zm14.8,18.18c5.54-.14,10.2-2.84,10.2-6.35,0-3.04-2.77-4.6-6.49-4.6-1.49,0-3.18,.34-4.6,1.08l.88,9.87Zm2.37,19.12c6.08-.14,11.49-2.43,11.49-6.22,0-2.84-2.64-3.92-6.28-3.92-2.23,0-4.53,.41-6.15,1.15l.95,8.99Z"/><path class="cls-4" d="M53.78,62.27l-3.85-49.47,31.83-3.78,.88,11.69-18.58,2.16,.68,6.89,14.53-1.08,1.08,10.74-14.26,1.22,1.01,7.3,18.25-1.82,.95,16.62-32.5-.47Z"/><path class="cls-4" d="M91.18,45.45c4.87,3.38,10,4.87,14.26,4.87,5.2,0,8.92-2.23,8.92-5.95,0-8.51-27.91-1.96-27.91-18.31,0-12.57,12.16-15.81,23.65-15.81,4.53,0,8.92,.54,12.43,1.15l-.41,12.37c-2.3-1.01-7.5-2.23-12.03-2.23-4.05,0-7.5,1.01-7.5,3.99,0,6.89,28.92-2.91,28.92,19.8,0,12.84-12.16,18.52-24.6,18.52-9.12,0-18.31-3.04-23.04-8.58l7.3-9.8Z"/><path class="cls-4" d="M131.54,64.44l-3.85-51.09c5.07-1.96,10.95-2.91,16.42-2.91,17.91,0,27.64,7.23,27.64,19.93,0,9.26-8.78,18.31-26.69,18.38l2.16,14.6-15.68,1.08Zm11.76-27.64c5.81-1.15,11.76-3.78,11.76-8.51,0-4.32-3.38-6.01-7.37-6.01-2.09,0-4.32,.47-6.28,1.28l1.89,13.24Z"/><path class="cls-4" d="M194.01,62.95c-13.52,0-24.87-10.68-24.87-25s9.53-26.96,25.75-26.96,25.75,12.77,25.75,26.49c0,15.68-12.57,25.48-26.62,25.48Zm10.95-24.87c0-5.27-3.45-10.88-9.93-10.88s-10.81,4.8-10.81,11.83c0,5.68,3.45,11.22,10.88,11.22,6.01,0,9.87-5,9.87-12.16Z"/><path class="cls-4" d="M249.8,64.37l-17.1-17.64-1.89,17.97-11.01-2.43-1.55-49.47,16.69,.41-1.89,20.07,13.79-19.19,15.47,.81-17.98,23.18,17.5,17.3-12.03,8.99Z"/><path class="cls-4" d="M262.1,62.27l-3.85-49.47,31.83-3.78,.88,11.69-18.58,2.16,.68,6.89,14.53-1.08,1.08,10.74-14.26,1.22,1.01,7.3,18.25-1.82,.95,16.62-32.5-.47Z"/></g><g><path class="cls-4" d="M10.68,114.43l-2.16-28.71c2.85-1.1,6.15-1.63,9.23-1.63,10.06,0,15.53,4.06,15.53,11.2,0,5.2-4.94,10.29-15,10.33l1.22,8.2-8.81,.61Zm6.61-15.53c3.27-.65,6.61-2.13,6.61-4.78,0-2.43-1.9-3.38-4.14-3.38-1.18,0-2.43,.27-3.53,.72l1.06,7.44Z"/><path class="cls-4" d="M46.64,114.62l-4.56-10.59c-1.03,.57-2.2,1.03-3.11,1.33l.87,7.9-8.28,1.29-.72-28.97c2.62-.61,5.51-.91,8.28-.91,7.22,0,13.78,2.28,13.78,8.35,0,3.19-1.94,5.81-5.28,8.09l7.06,9.34-8.05,4.18Zm-8.51-15.91c3.84-.61,6.95-2.39,6.95-4.78,0-2.2-1.67-2.85-3.57-2.85-1.48,0-3.11,.38-4.22,.72l.84,6.91Z"/><path class="cls-4" d="M65.24,113.59c-7.59,0-13.97-6-13.97-14.05s5.35-15.15,14.47-15.15,14.47,7.18,14.47,14.89c0,8.81-7.06,14.32-14.96,14.32Zm6.15-13.97c0-2.96-1.94-6.11-5.58-6.11s-6.08,2.7-6.08,6.65c0,3.19,1.94,6.3,6.11,6.3,3.38,0,5.54-2.81,5.54-6.84Z"/><path class="cls-4" d="M93.43,103.53l-.11-5.54,14.01-.65c.08,.57,.08,1.1,.08,1.63,0,11.01-7.33,15.76-14.05,15.76-7.44,0-15.11-5.81-15.11-15.49s7.37-14.96,15.95-14.96c3.15,0,6.46,.72,9.61,2.32l-3.46,6.99c-2.05-1.03-4.48-1.78-6.72-1.78-3.53,0-6.57,1.86-6.57,7.44,0,4.82,3.65,8.24,6.72,8.24,2.01,0,3.8-1.14,4.48-3.87l-4.82-.08Z"/><path class="cls-4" d="M122.93,114.62l-4.56-10.59c-1.03,.57-2.2,1.03-3.11,1.33l.87,7.9-8.28,1.29-.72-28.97c2.62-.61,5.51-.91,8.28-.91,7.22,0,13.78,2.28,13.78,8.35,0,3.19-1.94,5.81-5.28,8.09l7.06,9.34-8.05,4.18Zm-8.51-15.91c3.84-.61,6.95-2.39,6.95-4.78,0-2.2-1.67-2.85-3.57-2.85-1.48,0-3.11,.38-4.22,.72l.84,6.91Z"/><path class="cls-4" d="M148.65,113.67l-1.78-6.95-7.33,.27-1.14,6.04-8.7,.46,7.78-28.67,9.8-.8,10.22,29.28-8.85,.38Zm-5.92-20.92l-2.16,8.96h4.97l-2.81-8.96Z"/><path class="cls-4" d="M181.5,113.21l-1.1-17.09-6.08,16.44-4.22-.27-5.43-15.84-1.1,16.78-8.92-1.48,4.63-27.53,9.34,.72,4.86,13.33,5.24-12.49,9.53-.34,2.73,28.06-9.49-.3Z"/><path class="cls-4" d="M216.07,113.21l-1.1-17.09-6.08,16.44-4.22-.27-5.43-15.84-1.1,16.78-8.92-1.48,4.63-27.53,9.34,.72,4.86,13.33,5.24-12.49,9.53-.34,2.73,28.06-9.49-.3Z"/><path class="cls-4" d="M225.57,112.72l.53-6.91,3.19,.19,.57-14.09h-3.04l-.23-6.65,16.25-.68-.15,7.33h-3.76l-1.03,14.73,2.73,.15-.49,7.41-14.58-1.48Z"/><path class="cls-4" d="M261.34,114.46l-10.37-16.1,.68,15.34-8.13-.84-.68-25.71,8.85-1.67,7.52,14.32-.57-14.47,9.53-.53-2.54,28.78-4.29,.87Z"/><path class="cls-4" d="M280.63,103.53l-.11-5.54,14.01-.65c.08,.57,.08,1.1,.08,1.63,0,11.01-7.33,15.76-14.05,15.76-7.44,0-15.11-5.81-15.11-15.49s7.37-14.96,15.95-14.96c3.15,0,6.46,.72,9.61,2.32l-3.46,6.99c-2.05-1.03-4.48-1.78-6.72-1.78-3.53,0-6.57,1.86-6.57,7.44,0,4.82,3.65,8.24,6.72,8.24,2.01,0,3.8-1.14,4.48-3.87l-4.82-.08Z"/><path class="cls-4" d="M10.68,114.43l-2.16-28.71c2.85-1.1,6.15-1.63,9.23-1.63,10.06,0,15.53,4.06,15.53,11.2,0,5.2-4.94,10.29-15,10.33l1.22,8.2-8.81,.61Zm6.61-15.53c3.27-.65,6.61-2.13,6.61-4.78,0-2.43-1.9-3.38-4.14-3.38-1.18,0-2.43,.27-3.53,.72l1.06,7.44Z"/><path class="cls-4" d="M46.64,114.62l-4.56-10.59c-1.03,.57-2.2,1.03-3.11,1.33l.87,7.9-8.28,1.29-.72-28.97c2.62-.61,5.51-.91,8.28-.91,7.22,0,13.78,2.28,13.78,8.35,0,3.19-1.94,5.81-5.28,8.09l7.06,9.34-8.05,4.18Zm-8.51-15.91c3.84-.61,6.95-2.39,6.95-4.78,0-2.2-1.67-2.85-3.57-2.85-1.48,0-3.11,.38-4.22,.72l.84,6.91Z"/><path class="cls-4" d="M65.24,113.59c-7.59,0-13.97-6-13.97-14.05s5.35-15.15,14.47-15.15,14.47,7.18,14.47,14.89c0,8.81-7.06,14.32-14.96,14.32Zm6.15-13.97c0-2.96-1.94-6.11-5.58-6.11s-6.08,2.7-6.08,6.65c0,3.19,1.94,6.3,6.11,6.3,3.38,0,5.54-2.81,5.54-6.84Z"/><path class="cls-4" d="M93.43,103.53l-.11-5.54,14.01-.65c.08,.57,.08,1.1,.08,1.63,0,11.01-7.33,15.76-14.05,15.76-7.44,0-15.11-5.81-15.11-15.49s7.37-14.96,15.95-14.96c3.15,0,6.46,.72,9.61,2.32l-3.46,6.99c-2.05-1.03-4.48-1.78-6.72-1.78-3.53,0-6.57,1.86-6.57,7.44,0,4.82,3.65,8.24,6.72,8.24,2.01,0,3.8-1.14,4.48-3.87l-4.82-.08Z"/><path class="cls-4" d="M122.93,114.62l-4.56-10.59c-1.03,.57-2.2,1.03-3.11,1.33l.87,7.9-8.28,1.29-.72-28.97c2.62-.61,5.51-.91,8.28-.91,7.22,0,13.78,2.28,13.78,8.35,0,3.19-1.94,5.81-5.28,8.09l7.06,9.34-8.05,4.18Zm-8.51-15.91c3.84-.61,6.95-2.39,6.95-4.78,0-2.2-1.67-2.85-3.57-2.85-1.48,0-3.11,.38-4.22,.72l.84,6.91Z"/><path class="cls-4" d="M148.65,113.67l-1.78-6.95-7.33,.27-1.14,6.04-8.7,.46,7.78-28.67,9.8-.8,10.22,29.28-8.85,.38Zm-5.92-20.92l-2.16,8.96h4.97l-2.81-8.96Z"/><path class="cls-4" d="M181.5,113.21l-1.1-17.09-6.08,16.44-4.22-.27-5.43-15.84-1.1,16.78-8.92-1.48,4.63-27.53,9.34,.72,4.86,13.33,5.24-12.49,9.53-.34,2.73,28.06-9.49-.3Z"/><path class="cls-4" d="M216.07,113.21l-1.1-17.09-6.08,16.44-4.22-.27-5.43-15.84-1.1,16.78-8.92-1.48,4.63-27.53,9.34,.72,4.86,13.33,5.24-12.49,9.53-.34,2.73,28.06-9.49-.3Z"/><path class="cls-4" d="M225.57,112.72l.53-6.91,3.19,.19,.57-14.09h-3.04l-.23-6.65,16.25-.68-.15,7.33h-3.76l-1.03,14.73,2.73,.15-.49,7.41-14.58-1.48Z"/><path class="cls-4" d="M261.34,114.46l-10.37-16.1,.68,15.34-8.13-.84-.68-25.71,8.85-1.67,7.52,14.32-.57-14.47,9.53-.53-2.54,28.78-4.29,.87Z"/><path class="cls-4" d="M280.63,103.53l-.11-5.54,14.01-.65c.08,.57,.08,1.1,.08,1.63,0,11.01-7.33,15.76-14.05,15.76-7.44,0-15.11-5.81-15.11-15.49s7.37-14.96,15.95-14.96c3.15,0,6.46,.72,9.61,2.32l-3.46,6.99c-2.05-1.03-4.48-1.78-6.72-1.78-3.53,0-6.57,1.86-6.57,7.44,0,4.82,3.65,8.24,6.72,8.24,2.01,0,3.8-1.14,4.48-3.87l-4.82-.08Z"/></g></g></g></svg>