<?xml version="1.0" encoding="UTF-8"?><svg id="Layer_2" xmlns="http://www.w3.org/2000/svg" xmlns:xlink="http://www.w3.org/1999/xlink" viewBox="0 0 1921 1081"><defs><style>.cls-1{opacity:.5;}.cls-2{fill:#d6d2fc;}.cls-3{clip-path:url(#clippath-1);}.cls-4{fill:#ebe8fe;}.cls-5{clip-path:url(#clippath);}.cls-6{fill:none;}.cls-7{fill:#fff;stroke:#000;stroke-miterlimit:10;}</style><clipPath id="clippath"><rect class="cls-6" x=".47" y=".5" width="1920" height="1080"/></clipPath><clipPath id="clippath-1"><rect class="cls-6" x=".47" y=".5" width="1920" height="1080"/></clipPath></defs><g id="Layer_1-2"><rect class="cls-4" x=".47" y=".5" width="1920" height="1080" transform="translate(1920.94 1081) rotate(180)"/><g class="cls-5"><g><g><line class="cls-2" x1="-156.75" y1="592.52" x2="678.29" y2="554.02"/><path class="cls-2" d="M-157.79,558.57c278.69,6.85,557.68,5.36,836.08-4.55-139.17,7.89-278.08,17.85-416.93,29.93-138.83,12.08-277.55,26.27-416.06,42.55l-1.12-16.99c-.34-5.66-.74-11.33-.93-16.99-.44-11.32-.95-22.66-1.03-33.95Z"/></g><g><line class="cls-2" x1="-146.26" y1="702.32" x2="304.7" y2="636.72"/><path class="cls-2" d="M-150.65,668.43c76.13-2.98,152.05-7.1,227.99-12.39,75.94-5.29,151.73-11.73,227.36-19.32-37.34,7.14-74.66,14.57-111.9,22.28-37.22,7.71-74.39,15.7-111.51,23.98-74.25,16.56-148.3,34.27-222.13,53.13-3.88-22.49-7.31-45.05-9.81-67.68Z"/></g><g><line class="cls-2" x1="-124.9" y1="810.98" x2="656.71" y2="616.57"/><path class="cls-2" d="M-132.65,777.59c132.43-22.8,264.39-47.61,395.97-74.45,131.61-26.85,262.76-55.71,393.4-86.57-64.95,16.97-129.78,34.44-194.48,52.41-64.67,17.96-129.2,36.43-193.6,55.39-128.8,37.92-257.07,77.85-384.77,119.75l-4.5-16.55-2.2-8.28-2.06-8.32-4.04-16.66c-1.3-5.56-2.49-11.15-3.71-16.73Z"/></g><g><line class="cls-2" x1="-92.82" y1="917.1" x2="596.35" y2="670.67"/><path class="cls-2" d="M-103.86,884.64c117.85-32.08,235.08-65.94,351.81-101.61,116.75-35.68,232.9-73.13,348.41-112.36-57.11,21.46-114.06,43.36-170.85,65.71-56.75,22.33-113.35,45.1-169.77,68.31-112.85,46.42-225.05,94.6-336.53,144.52l-6.11-16.02-3.02-8.02-2.88-8.08-5.68-16.18c-1.85-5.41-3.59-10.85-5.36-16.29Z"/></g><g><line class="cls-2" x1="-50.37" y1="1019.46" x2="616.77" y2="703.02"/><path class="cls-2" d="M-64.56,988.28c115.07-44.07,229.31-89.85,342.92-137.42,113.6-47.56,226.42-96.85,338.42-147.84-110.41,54.51-219.91,110.67-328.58,168.53-108.67,57.86-216.5,117.41-323.45,178.63-10.3-20.36-20.24-40.93-29.31-61.9Z"/></g><g><line class="cls-2" x1="1.93" y1="1116.95" x2="574.78" y2="772.01"/><path class="cls-2" d="M-15.25,1087.37c199.89-99.1,396.77-204.35,590.03-315.37-94.35,59.49-187.66,120.33-280.15,182.68-92.46,62.32-184.07,126.12-274.64,191.27-3.11-4.77-6.09-9.63-9.12-14.45-2.99-4.85-6.06-9.64-8.95-14.56-5.82-9.8-11.66-19.59-17.17-29.57Z"/></g><g><line class="cls-2" x1="63.48" y1="1208.64" x2="694.35" y2="738.28"/><path class="cls-2" d="M43.52,1180.95c55.37-35.24,110.45-70.89,165.25-106.96,54.82-36.08,109.37-72.58,163.62-109.48,108.5-73.8,215.83-149.22,321.96-226.24-104.13,79.75-207.02,161.07-308.72,243.99-101.68,82.91-202.19,167.43-301.32,253.41-3.58-4.42-7.02-8.94-10.5-13.45-3.46-4.52-6.93-9.02-10.33-13.58l-10.07-13.78-5-6.92-4.89-7Z"/></g><g><line class="cls-2" x1="133.68" y1="1293.72" x2="812.19" y2="675.37"/><path class="cls-2" d="M111.11,1268.15c119.82-95.22,238.26-192.32,355.12-291.13,116.87-98.82,232.18-199.36,345.96-301.65-112.36,103.8-223.17,209.33-332.39,316.55-54.61,53.61-108.82,107.65-162.63,162.1-53.78,54.43-107.16,109.27-160.13,164.53l-5.94-6.12-5.83-6.22-11.6-12.49c-3.83-4.2-7.59-8.47-11.36-12.71-3.76-4.26-7.55-8.5-11.21-12.85Z"/></g><g><line class="cls-2" x1="211.86" y1="1371.44" x2="494.18" y2="1058.2"/><path class="cls-2" d="M186.87,1348.24c52.7-46.81,104.74-94.45,155.94-142.78,51.23-48.36,101.63-97.38,151.36-147.26-88.79,109.12-174.46,221.16-256.63,335.68-8.72-7.29-17.2-14.86-25.69-22.43-4.27-3.76-8.39-7.67-12.56-11.52-4.15-3.88-8.34-7.73-12.42-11.68Z"/></g><g><line class="cls-2" x1="297.33" y1="1441.16" x2="767.15" y2="803.69"/><path class="cls-2" d="M270.15,1420.53c86-100.33,170.43-201.91,253.26-304.72,41.42-51.4,82.43-103.11,123.05-155.11,40.63-52.02,80.87-104.37,120.69-157-76.95,107.22-152.29,215.65-225.99,325.24-73.69,109.57-145.68,220.23-216.03,332.06-4.67-3.25-9.37-6.47-13.99-9.79l-13.8-10.04-6.87-5.06-6.79-5.17-13.53-10.4Z"/></g><g><line class="cls-2" x1="389.37" y1="1502.22" x2="743.51" y2="906.61"/><path class="cls-2" d="M360.24,1484.32c133.71-188.79,261.44-381.31,383.26-577.71-57.15,100.36-112.8,201.66-166.9,303.79-54.07,102.08-106.6,205.04-157.58,308.85l-14.92-8.37c-4.93-2.86-9.84-5.76-14.74-8.66-9.85-5.75-19.47-11.85-29.12-17.9Z"/></g><g><line class="cls-2" x1="487.15" y1="1553.98" x2="874.96" y2="724.42"/><path class="cls-2" d="M456.35,1539.02c73.95-133.66,145.82-268.39,215.58-404.14,69.75-135.72,137.48-272.65,203.03-410.46-63.7,138.67-125.32,278.43-184.74,419.01-59.42,140.59-116.7,282.13-171.82,424.59l-15.69-6.88c-5.22-2.31-10.38-4.76-15.56-7.16-5.16-2.44-10.36-4.8-15.47-7.35l-15.33-7.61Z"/></g><g><line class="cls-2" x1="589.75" y1="1595.86" x2="804.53" y2="984.39"/><path class="cls-2" d="M557.57,1584.01c44.26-98.72,86.97-198.05,128.12-297.97,41.16-99.93,80.8-200.55,118.84-301.65-67.11,205.48-127.87,412.92-182.27,622.35-10.88-3.5-21.76-7.02-32.52-10.88-5.39-1.91-10.79-3.78-16.14-5.78l-16.03-6.08Z"/></g><g><line class="cls-2" x1="696.05" y1="1627.35" x2="840.42" y2="1032.71"/><path class="cls-2" d="M662.86,1618.76c32.62-96.82,63.72-194.07,93.31-291.72,29.59-97.68,57.69-195.85,84.25-294.33-43.14,199.51-80.11,400.23-110.95,602.23-11.17-2.4-22.33-4.81-33.42-7.59-5.55-1.36-11.11-2.69-16.64-4.14l-16.56-4.46Z"/></g><g><line class="cls-2" x1="1024.41" y1="1657.1" x2="978.95" y2="855.84"/><path class="cls-2" d="M990.44,1658.54c2.12-133.9,2.22-267.76,.31-401.55-1.91-133.78-5.84-267.47-11.8-401.16,18.4,266.85,44.88,533.37,79.45,798.8-22.65,2.05-45.32,3.2-67.96,3.9Z"/></g><g><line class="cls-2" x1="1134.16" y1="1645.45" x2="1001.22" y2="795.71"/><path class="cls-2" d="M1100.3,1650.23c-12.16-142.93-26.51-285.71-43.02-428.13-16.52-142.46-35.19-284.5-56.06-426.39,46.89,282.75,102.49,564.37,166.67,843.91-11.21,2.21-22.47,3.97-33.73,5.83-5.63,.94-11.28,1.67-16.92,2.49-5.64,.78-11.29,1.6-16.94,2.29Z"/></g><g><line class="cls-2" x1="1348.38" y1="1589.69" x2="1030.72" y2="730.7"/><path class="cls-2" d="M1316.04,1601.09c-43.08-146.5-88.44-292.43-135.99-437.49-47.57-145.1-97.32-289.33-149.33-432.9,107.76,285.54,224.42,568.03,349.62,846.59-10.55,4.38-21.27,8.36-31.96,12.41-5.34,2.03-10.75,3.88-16.14,5.8-5.4,1.88-10.77,3.83-16.21,5.6Z"/></g><g><line class="cls-2" x1="1450.25" y1="1546.14" x2="1159.84" y2="950.52"/><path class="cls-2" d="M1419.25,1560.69c-40.12-103.05-81.84-205.5-125.07-307.19-43.24-101.71-87.99-202.64-134.34-302.99,100.94,196.46,208.03,390.03,320.94,580.13-10.06,5.38-20.29,10.43-30.53,15.49-5.1,2.56-10.29,4.94-15.46,7.37-5.18,2.41-10.34,4.84-15.55,7.18Z"/></g><g><line class="cls-2" x1="1547.15" y1="1492.79" x2="1283.45" y2="1065.29"/><path class="cls-2" d="M1517.8,1510.32c-36.83-75.44-74.78-150.25-113.84-224.42-19.53-37.08-39.33-74-59.41-110.76-20.08-36.76-40.47-73.41-61.11-109.86,46.61,69.59,94.31,138.5,143.09,206.73,48.77,68.21,98.54,135.63,149.41,202.38-18.96,12.62-38.45,24.45-58.15,35.92Z"/></g><g><line class="cls-2" x1="1638.15" y1="1430.25" x2="1249.04" y2="919.84"/><path class="cls-2" d="M1610.71,1450.55c-115.26-180.71-235.78-357.55-361.67-530.71,66.78,83.58,134.86,166.2,204.21,247.78,69.31,81.53,139.89,162.05,211.72,241.54l-13.3,10.68-13.52,10.42c-8.99,6.97-18.24,13.6-27.44,20.3Z"/></g><g><line class="cls-2" x1="1722.46" y1="1359.16" x2="1394.79" y2="1007.21"/><path class="cls-2" d="M1697.16,1382.02c-48.54-64.05-98.01-127.31-148.39-189.77-50.37-62.44-101.76-124.19-153.98-185.05,56.97,56.43,114.91,112.1,173.59,166.79,58.7,54.71,118.27,108.57,178.69,161.56l-12.2,11.91c-4.06,3.97-8.26,7.8-12.41,11.69-4.18,3.86-8.3,7.77-12.55,11.54l-12.75,11.32Z"/></g><g><line class="cls-2" x1="1799.36" y1="1280.17" x2="1112.85" y2="674.58"/><path class="cls-2" d="M1776.42,1305.4c-107.42-108.52-216.44-215.35-327.02-320.47-110.63-105.17-222.83-208.63-336.55-310.34,230.3,200.35,466.5,393.56,708.71,579.69-7.33,8.69-14.6,17.44-22.19,25.9l-11.35,12.73-11.6,12.5Z"/></g><g><line class="cls-2" x1="1868.18" y1="1193.96" x2="1195.74" y2="709.37"/><path class="cls-2" d="M1847.8,1221.34c-106.11-88.66-213.47-175.63-322.18-260.98-108.72-85.36-218.69-169.03-329.88-250.99,112.98,79.59,227.11,157.42,342.44,233.52,115.33,76.1,231.88,150.48,349.58,223.09-12.84,18.8-26.02,37.37-39.95,55.36Z"/></g><g><line class="cls-2" x1="1928.28" y1="1101.27" x2="1259.81" y2="713.45"/><path class="cls-2" d="M1910.65,1130.56c-212.68-145.65-429.85-284.83-650.84-417.11,112.35,63.15,225.52,124.5,339.75,184.18,114.19,59.66,229.41,117.63,345.43,173.8-2.68,5.03-5.5,9.99-8.27,14.97-2.81,4.96-5.53,9.97-8.45,14.87-5.78,9.82-11.54,19.66-17.62,29.29Z"/></g><g><line class="cls-2" x1="1979.01" y1="1002.92" x2="1228" y2="661.64"/><path class="cls-2" d="M1964.34,1033.86c-60.42-32.91-121.07-65.34-181.95-97.3-60.91-31.97-122.07-63.48-183.44-94.51-122.76-62.05-246.42-122.2-370.94-180.42,125.8,55.53,252.38,109.11,379.86,160.76,127.45,51.64,255.83,101.39,384.83,149.1-2.14,5.3-4.48,10.51-6.75,15.75-2.3,5.23-4.56,10.47-6.94,15.67l-7.23,15.53-3.66,7.74-3.78,7.68Z"/></g><g><line class="cls-2" x1="2019.8" y1="899.86" x2="1219.79" y2="628.52"/><path class="cls-2" d="M2008.25,932.15c-64.94-27.33-130.04-54.14-195.38-80.47-65.35-26.33-130.89-52.15-196.61-77.45-131.44-50.62-263.61-99.19-396.47-145.71,133.76,43.91,268.19,85.76,403.3,125.55,135.1,39.79,270.91,77.52,407.19,113.13-1.61,5.48-3.39,10.92-5.14,16.36-1.76,5.44-3.53,10.88-5.34,16.29l-5.67,16.18-2.87,8.08c-.97,2.69-2,5.35-3,8.03Z"/></g><g><line class="cls-2" x1="2050.14" y1="793.23" x2="1370.29" y2="635.92"/><path class="cls-2" d="M2041.86,826.5c-110.94-35.21-222.47-68.71-334.43-100.48-111.96-31.77-224.35-61.8-337.14-90.09,113.76,24.13,227.91,46.52,342.44,67.15,114.52,20.64,229.47,39.53,344.58,56.64-1.05,5.61-2.29,11.19-3.49,16.77l-3.69,16.73-4.03,16.66c-1.35,5.55-2.73,11.1-4.24,16.61Z"/></g><g><line class="cls-2" x1="2069.7" y1="684.28" x2="1315.37" y2="587.07"/><path class="cls-2" d="M2064.78,718.12c-62.13-12.84-124.32-25.19-186.62-37.07-62.32-11.88-124.72-23.28-187.19-34.21-124.94-21.85-250.15-41.77-375.61-59.78,125.96,14.39,252.09,26.85,378.48,37.4,126.35,10.55,253.04,19.17,379.68,25.87-.49,5.66-1.2,11.32-1.82,16.97-.66,5.66-1.28,11.31-2.01,16.96l-2.35,16.94-1.21,8.46-1.36,8.45Z"/></g><g><line class="cls-2" x1="2078.38" y1="574.43" x2="1619.73" y2="560.66"/><path class="cls-2" d="M2076.83,608.4c-151.89-20.53-304.5-36.44-457.1-47.75,76.61-1.06,153.07-3.28,229.61-6.64,76.53-3.36,153.06-7.87,229.58-13.52l-.18,16.96c-.09,5.66-.13,11.3-.36,16.97-.42,11.33-.77,22.64-1.55,33.98Z"/></g><g><line class="cls-2" x1="2078.38" y1="506.57" x2="1242.82" y2="531.66"/><path class="cls-2" d="M2078.92,540.5c-139.36-5.65-278.75-9.22-418.1-10.69-139.37-1.47-278.63-.87-418,1.85,278.35-11.29,556.65-30.97,834.01-59.06,.78,11.34,1.13,22.65,1.55,33.98,.24,5.67,.27,11.31,.36,16.97l.18,16.96Z"/></g><g><line class="cls-2" x1="2069.7" y1="396.72" x2="1617.73" y2="454.96"/><path class="cls-2" d="M2073.53,430.65c-76.08,1.74-152.27,4.65-228.22,8.7-75.99,4.05-151.81,9.25-227.58,15.61,74.86-13.05,149.57-27.25,224.11-42.61,37.27-7.68,74.49-15.64,111.67-23.89,37.15-8.25,74.23-16.78,111.27-25.6l1.36,8.45,1.21,8.46,2.35,16.94c.74,5.65,1.36,11.3,2.01,16.96,.62,5.66,1.33,11.31,1.82,16.97Z"/></g><g><line class="cls-2" x1="2050.14" y1="287.77" x2="1265.44" y2="469.34"/><path class="cls-2" d="M2057.32,321.28c-132.71,20.62-265.19,43.29-397.19,67.97-132.01,24.68-263.57,51.38-394.69,80.09,130.39-31.79,260.32-65.6,389.76-101.41,129.44-35.82,258.39-73.63,386.66-113.42,1.51,5.51,2.89,11.06,4.24,16.61l4.03,16.66,3.69,16.73c1.2,5.58,2.44,11.16,3.49,16.77Z"/></g><g><line class="cls-2" x1="2019.8" y1="181.14" x2="1326.67" y2="416.22"/><path class="cls-2" d="M2030.28,213.79c-118.28,30.12-236.19,62.09-353.48,95.83-117.3,33.75-234,69.28-350.13,106.6,114.85-41.02,229.12-83.83,342.74-128.4,56.81-22.29,113.47-45.02,169.96-68.19,56.48-23.16,112.75-46.75,168.88-70.79,1,2.68,2.03,5.34,3,8.03l2.87,8.08,5.67,16.18c1.82,5.42,3.58,10.86,5.34,16.29,1.75,5.44,3.53,10.87,5.14,16.36Z"/></g><g><line class="cls-2" x1="1979.01" y1="78.08" x2="1306.78" y2="383.56"/><path class="cls-2" d="M1992.69,109.5c-115.69,42.15-230.85,86.13-345.17,131.8-114.35,45.69-227.9,93.09-340.74,142.26,111.21-52.65,221.65-107.03,331.27-163.12,54.81-28.04,109.43-56.52,163.82-85.4,54.37-28.88,108.52-58.18,162.47-87.9l3.78,7.68,3.66,7.74,7.23,15.53c2.37,5.19,4.64,10.44,6.94,15.67,2.27,5.24,4.6,10.45,6.75,15.75Z"/></g><g><line class="cls-2" x1="1928.28" y1="-20.27" x2="1349.88" y2="315.29"/><path class="cls-2" d="M1945,9.58c-100.75,47.92-200.82,97.41-300,148.36-99.22,50.97-197.51,103.38-295.11,157.36,190.44-115.78,377.57-237.53,560.77-364.85,6.09,9.63,11.84,19.47,17.62,29.29,2.92,4.89,5.64,9.91,8.45,14.87,2.77,4.99,5.59,9.94,8.27,14.97Z"/></g><g><line class="cls-2" x1="1868.18" y1="-112.96" x2="1229.77" y2="347.11"/><path class="cls-2" d="M1887.75-84.98c-111.9,68.7-222.71,139.08-332.38,211.09-109.66,72.01-218.17,145.66-325.61,220.99,105.4-78.04,209.63-157.71,312.68-238.98,103.04-81.27,204.78-164.06,305.35-248.46,13.93,17.99,27.11,36.56,39.95,55.36Z"/></g><g><line class="cls-2" x1="1799.36" y1="-199.17" x2="1110.93" y2="408.11"/><path class="cls-2" d="M1821.55-173.27C1578.69,13.4,1341.85,207.17,1110.93,408.11c114.05-101.98,226.57-205.72,337.52-311.17,110.9-105.4,220.23-212.53,327.97-321.33l11.6,12.5,11.35,12.73c7.59,8.46,14.86,17.21,22.19,25.9Z"/></g><g><line class="cls-2" x1="1722.46" y1="-278.16" x2="1435.11" y2="30.48"/><path class="cls-2" d="M1747.07-254.56c-53.49,45.98-106.23,92.72-158.21,140.21-51.96,47.47-103.28,95.82-153.75,144.82,45.28-53.84,89.84-108.48,133.49-163.7,43.66-55.23,86.52-111.18,128.56-167.81l12.75,11.32c4.25,3.77,8.37,7.69,12.55,11.54,4.14,3.89,8.34,7.72,12.41,11.69l12.2,11.91Z"/></g><g><line class="cls-2" x1="1638.15" y1="-349.25" x2="1158.06" y2="280.51"/><path class="cls-2" d="M1664.97-328.16c-87.59,98.9-173.64,199.09-258.11,300.51-84.51,101.48-167.46,204.22-248.8,308.16,157.43-212.02,308.29-428.67,452.65-650.06,9.2,6.7,18.45,13.33,27.44,20.3l13.52,10.42,13.3,10.68Z"/></g><g><line class="cls-2" x1="1547.15" y1="-411.79" x2="1183.36" y2="177.97"/><path class="cls-2" d="M1575.95-393.4c-68.37,93.28-135.24,187.48-200.69,282.74-65.46,95.27-129.43,191.49-191.9,288.63,29.39-49.72,58.43-99.69,87.06-149.85,28.63-50.15,56.87-100.53,84.74-151.14,55.74-101.21,109.96-203.32,162.64-306.3,19.7,11.47,39.19,23.3,58.15,35.92Z"/></g><g><line class="cls-2" x1="1450.25" y1="-465.14" x2="1048.93" y2="357.97"/><path class="cls-2" d="M1480.78-449.65c-152.19,264.76-296.27,534.2-431.85,807.62,65.99-137.69,129.82-276.26,191.55-415.89,61.72-139.61,121.34-280.26,178.77-421.77,5.21,2.34,10.37,4.77,15.55,7.18,5.16,2.43,10.36,4.81,15.46,7.37,10.23,5.05,20.47,10.11,30.53,15.49Z"/></g><g><line class="cls-2" x1="1348.38" y1="-508.69" x2="1123.59" y2="99.17"/><path class="cls-2" d="M1380.34-496.29c-91.68,195.84-177.37,394.58-256.75,595.46,35.24-102.19,68.87-204.79,100.95-308.03,32.07-103.2,62.6-207.04,91.5-311.23,5.43,1.78,10.81,3.72,16.21,5.6,5.38,1.92,10.79,3.77,16.14,5.8,10.69,4.05,21.41,8.03,31.96,12.41Z"/></g><g><line class="cls-2" x1="1242.61" y1="-541.93" x2="1088.5" y2="50.27"/><path class="cls-2" d="M1275.65-532.75c-17.1,48.12-33.82,96.36-50.16,144.7-16.35,48.36-32.33,96.87-47.93,145.47-31.2,97.21-60.89,194.84-89.06,292.85,23.2-99.39,44.85-199.02,64.99-299.11,20.13-100.04,38.75-200.55,55.81-301.21,5.58,1.22,11.12,2.63,16.68,3.96,5.55,1.37,11.11,2.68,16.63,4.16l16.55,4.47c2.76,.76,5.52,1.5,8.26,2.29l8.23,2.42Z"/></g><g><line class="cls-2" x1="914.62" y1="-576.97" x2="947.19" y2="224.92"/><path class="cls-2" d="M948.57-577.84c-4.25,133.82-6.49,267.63-6.72,401.4-.23,133.85,1.55,267.65,5.34,401.36-14.12-267.26-36.28-533.9-66.55-800.01,11.33-.73,22.66-1.51,33.98-1.88l16.99-.61,16.96-.25Z"/></g><g><line class="cls-2" x1="804.8" y1="-567.09" x2="923.88" y2="284.7"/><path class="cls-2" d="M838.71-571.32c9.84,143.14,21.86,286.06,36.05,428.71,14.19,142.64,30.57,285.18,49.11,427.31-21.14-141.77-44.47-283.32-69.95-424.4-25.48-141.07-53.12-281.81-82.93-422.16l16.89-2.78c5.63-.91,11.28-1.66,16.92-2.46,5.65-.77,11.29-1.61,16.94-2.27l16.97-1.95Z"/></g><g><line class="cls-2" x1="589.75" y1="-514.86" x2="893.27" y2="349.23"/><path class="cls-2" d="M622.27-525.74C703.64-231.23,793.99,60.46,893.27,349.23c-51.54-143.66-105.32-286.62-161.27-428.66-55.94-142.02-114.09-283.23-174.43-423.58l16.03-6.08c5.35-2,10.76-3.86,16.14-5.78,10.76-3.86,21.64-7.38,32.52-10.88Z"/></g><g><line class="cls-2" x1="487.15" y1="-472.98" x2="767.78" y2="127.31"/><path class="cls-2" d="M518.4-487.02c38.44,103.71,78.44,206.78,120,309.14,41.55,102.37,84.72,204.18,129.38,305.19-48.86-99.05-99.31-197.48-151.19-294.99-51.9-97.54-105.32-194.33-160.24-290.34l15.33-7.61c5.1-2.55,10.31-4.91,15.47-7.35,5.18-2.4,10.33-4.85,15.56-7.16l15.69-6.88Z"/></g><g><line class="cls-2" x1="389.37" y1="-421.22" x2="646.07" y2="10.52"/><path class="cls-2" d="M419.03-438.25c35.58,76.01,72.29,151.41,110.12,226.18,37.86,74.82,76.85,149.04,116.93,222.59-91.01-140.78-186.25-278.66-285.83-413.84,9.66-6.05,19.28-12.15,29.12-17.9,4.91-2.9,9.81-5.81,14.74-8.66l14.92-8.37Z"/></g><g><line class="cls-2" x1="297.33" y1="-360.16" x2="678.11" y2="156.5"/><path class="cls-2" d="M325.13-379.99c56.14,91.25,113.6,181.55,172.44,270.99,58.86,89.45,119.05,177.96,180.54,265.5-32.71-42.34-65.77-84.45-99.12-126.29-33.35-41.82-67.02-83.4-101.01-124.74-67.99-82.67-137.27-164.34-207.83-245l13.53-10.4,6.79-5.17,6.87-5.06,13.8-10.04c4.63-3.31,9.32-6.54,13.99-9.79Z"/></g><g><line class="cls-2" x1="211.86" y1="-290.44" x2="533.79" y2="66.76"/><path class="cls-2" d="M237.55-312.87C332.47-183.31,431.35-56.61,533.79,66.76c-56.11-57.41-113-113.86-170.84-169.54-57.81-55.66-116.56-110.53-176.08-164.46,4.09-3.95,8.27-7.79,12.42-11.68,4.18-3.86,8.3-7.77,12.56-11.52,8.49-7.57,16.97-15.14,25.69-22.43Z"/></g><g><line class="cls-2" x1="133.68" y1="-212.72" x2="810.3" y2="403.9"/><path class="cls-2" d="M157.05-237.55c52.82,55.11,106.04,109.81,159.66,164.09,53.65,54.3,107.71,108.2,162.16,161.66,108.9,106.93,219.39,212.18,331.43,315.7-113.47-101.99-228.47-202.24-345.03-300.77C348.72,4.61,230.61-92.21,111.11-187.15c3.66-4.35,7.44-8.59,11.21-12.85,3.78-4.25,7.54-8.51,11.36-12.71l11.6-12.49,5.83-6.22,5.94-6.12Z"/></g><g><line class="cls-2" x1="63.48" y1="-127.64" x2="727.98" y2="367.8"/><path class="cls-2" d="M84.31-154.67C188.91-64.35,294.96,24.44,402.25,111.52c107.31,87.1,215.86,172.51,325.72,256.27-111.61-81.36-224.48-161.05-338.59-239.03-57.05-38.99-114.42-77.56-172.07-115.68C159.69-25.02,101.75-62.7,43.52-99.95l4.89-7,5-6.92,10.07-13.78c3.4-4.56,6.88-9.06,10.33-13.58,3.47-4.51,6.91-9.03,10.5-13.45Z"/></g><g><line class="cls-2" x1="1.93" y1="-35.95" x2="663.99" y2="362.71"/><path class="cls-2" d="M20-64.96C125.15,9.59,231.49,82.58,338.82,153.85c107.36,71.3,215.68,140.87,325.17,208.86C441.54,232.87,214.91,109.71-15.25-6.37-9.74-16.36-3.89-26.15,1.93-35.95c2.88-4.92,5.95-9.72,8.95-14.56,3.03-4.82,6.01-9.68,9.12-14.45Z"/></g><g><line class="cls-2" x1="-50.37" y1="61.54" x2="694.96" y2="415.06"/><path class="cls-2" d="M-35.26,30.82C84.53,98.62,205.3,164.55,327,228.59c121.7,64.04,244.32,126.19,367.96,186.47-124.84-57.57-250.6-113.24-377.23-166.98C191.09,194.33,63.72,142.57-64.56,92.72c9.07-20.97,19-41.54,29.31-61.9Z"/></g><g><line class="cls-2" x1="-92.82" y1="163.9" x2="702.63" y2="448.33"/><path class="cls-2" d="M-80.81,131.78c129,56.8,258.8,111.58,389.37,164.34,65.28,26.38,130.76,52.25,196.42,77.61,65.7,25.37,131.58,50.24,197.64,74.6-133.02-46.1-266.79-90.17-401.26-132.18C166.93,274.15,31.89,234.23-103.86,196.36c1.77-5.43,3.52-10.88,5.36-16.29l5.68-16.18,2.88-8.08,3.02-8.02,6.11-16.02Z"/></g><g><line class="cls-2" x1="-124.9" y1="270.02" x2="552.28" y2="438.45"/><path class="cls-2" d="M-116.14,236.87c110.43,37.04,221.36,72.37,332.76,105.96,55.7,16.8,111.51,33.16,167.44,49.09,55.96,15.94,112.04,31.45,168.22,46.52-113.36-26-227.17-50.26-341.37-72.78-114.17-22.51-228.66-43.26-343.56-62.27,1.22-5.58,2.42-11.16,3.71-16.73l4.04-16.66,2.06-8.32,2.2-8.28,4.5-16.55Z"/></g><g><line class="cls-2" x1="-146.26" y1="378.68" x2="606.39" y2="488.16"/><path class="cls-2" d="M-140.84,344.89c123.87,27.71,248.09,53.5,372.62,77.38,62.27,11.94,124.61,23.4,187.03,34.38,62.44,10.98,124.99,21.49,187.58,31.52-125.69-16.44-251.66-30.97-377.88-43.57-126.23-12.6-252.55-23.27-379.16-32.02,2.5-22.63,5.93-45.19,9.81-67.68Z"/></g><g><line class="cls-2" x1="-156.75" y1="488.48" x2="301.61" y2="509.61"/><path class="cls-2" d="M-154.7,454.49c75.85,11.49,151.83,21.84,227.88,31.02,76.07,9.19,152.13,17.21,228.44,24.1-153.02-.33-306.39,3.96-459.4,12.82,.08-11.3,.6-22.64,1.03-33.95,.19-5.66,.59-11.33,.93-16.99l1.12-16.99Z"/></g></g></g><g class="cls-1"><g class="cls-3"><g><g><line class="cls-2" x1="18.94" y1="1144.16" x2="722.86" y2="693.3"/><path class="cls-2" d="M1.07,1115.28c244.78-133.41,485.65-274.2,721.79-421.98-116.58,76.42-231.9,154.5-346.11,234.39-114.19,79.88-227.23,161.52-339.04,244.88l-9.47-14.15c-3.12-4.74-6.31-9.45-9.3-14.25-6.04-9.58-12.15-19.14-17.87-28.89Z"/></g><g><line class="cls-2" x1="82.93" y1="1234.01" x2="440.67" y2="951.71"/><path class="cls-2" d="M62.18,1206.85c64.44-40.64,128.13-82.18,191.25-124.73,63.12-42.55,125.54-86.02,187.24-130.41-28.77,24.85-57.37,49.94-85.77,75.24-28.38,25.28-56.57,50.79-84.58,76.53-56.02,51.47-111.29,103.83-165.81,157.08-14.6-17.53-28.85-35.36-42.33-53.71Z"/></g><g><line class="cls-2" x1="155.75" y1="1317.42" x2="735.44" y2="758.26"/><path class="cls-2" d="M132.34,1292.39c103.29-85.96,205.16-173.42,305.69-262.46,100.56-89.06,199.7-179.63,297.41-271.67-47.76,47.17-95.17,94.72-142.22,142.63-47.03,47.89-93.68,96.15-139.97,144.77-92.58,97.24-183.71,195.95-273.34,296.09l-12.17-12.08-6.05-6.07-5.94-6.17-11.83-12.41c-3.9-4.17-7.73-8.41-11.58-12.63Z"/></g><g><line class="cls-2" x1="236.6" y1="1393.29" x2="710.22" y2="835.29"/><path class="cls-2" d="M210.8,1370.69c86.02-86.71,170.62-174.65,253.87-263.9,83.27-89.27,165.13-179.79,245.55-271.51-38.73,47.14-77.1,94.59-115.11,142.33-37.98,47.72-75.61,95.73-112.87,144.05-74.52,96.63-147.6,194.45-219.19,293.43l-13.3-10.81-6.63-5.44-6.53-5.55-13.01-11.17c-4.3-3.76-8.54-7.6-12.79-11.42Z"/></g><g><line class="cls-2" x1="324.53" y1="1460.71" x2="744.08" y2="853.09"/><path class="cls-2" d="M296.65,1440.8c77.61-95.7,153.66-192.47,228.27-290.47,74.6-97.99,147.66-197.08,219.16-297.24-68.37,102.41-135.11,205.8-200.29,310.24-65.18,104.44-128.79,209.94-190.8,316.43-19.11-12.48-37.99-25.33-56.33-38.96Z"/></g><g><line class="cls-2" x1="418.57" y1="1518.99" x2="742.21" y2="933.84"/><path class="cls-2" d="M388.91,1501.96c123.56-185.77,241.44-375.35,353.29-568.13-51.97,98.69-102.35,198.04-151.28,298.28-48.91,100.2-96.35,201.26-142.2,302.97-5.08-2.58-10.09-5.29-15.12-7.95-5.02-2.7-10.07-5.32-15.03-8.14-9.94-5.58-19.89-11.13-29.66-17.02Z"/></g><g><line class="cls-2" x1="517.73" y1="1567.62" x2="828.89" y2="844.84"/><path class="cls-2" d="M486.59,1553.62c30.33-58.2,60.21-116.62,89.63-175.25,29.44-58.66,58.43-117.54,86.96-176.62,57.06-118.16,112.31-237.15,165.71-356.91-50.3,121.13-98.75,243-145.36,365.66-46.61,122.64-91.39,246.1-134.25,370.12-5.31-2.03-10.56-4.23-15.82-6.4-5.25-2.18-10.51-4.34-15.74-6.6l-15.61-6.9-7.79-3.49-7.73-3.62Z"/></g><g><line class="cls-2" x1="621.06" y1="1606.2" x2="899.49" y2="731.44"/><path class="cls-2" d="M588.73,1595.34c56.16-142.37,110.18-285.68,161.98-429.68,51.81-144.02,101.39-288.74,148.79-434.21-45.41,146.07-88.61,292.87-129.58,440.33-20.49,73.73-40.42,147.64-59.79,221.69-19.36,74.02-38.17,148.21-56.41,222.55l-8.2-2.33-8.16-2.47-16.29-5.02c-5.41-1.73-10.8-3.54-16.2-5.33-5.39-1.81-10.79-3.59-16.13-5.53Z"/></g><g><line class="cls-2" x1="836.51" y1="1652.06" x2="924.64" y2="865.09"/><path class="cls-2" d="M802.65,1647.78c24.31-129.89,46.64-260.08,66.97-390.52,10.17-65.22,19.83-130.51,29-195.85,9.17-65.37,17.85-130.82,26.02-196.31-13.03,131.33-24.06,262.9-33.09,394.66-9.03,131.73-16.05,263.56-21.06,395.59-5.67-.48-11.35-.92-17.01-1.48l-16.97-1.8-8.48-.95-8.46-1.08-16.92-2.25Z"/></g><g><line class="cls-2" x1="946.74" y1="1658.92" x2="955.63" y2="966.04"/><path class="cls-2" d="M912.57,1657.99c21.4-230.35,35.76-460.95,43.06-691.94,.69,115.49,3.14,231.04,7.35,346.54,4.22,115.44,10.2,230.87,17.96,346.26l-17.1,.21c-5.7,0-11.4-.07-17.1-.13-11.4-.06-22.78-.53-34.17-.94Z"/></g><g><line class="cls-2" x1="1057.31" y1="1654.86" x2="978.38" y2="742.53"/><path class="cls-2" d="M1023.15,1657.3c-2.79-152.73-7.91-305.34-15.37-457.79-7.46-152.41-17.27-304.86-29.4-456.98,14.17,151.95,30.68,303.79,49.52,455.24,18.83,151.46,40,302.68,63.49,453.61l-17.03,1.89c-5.68,.62-11.37,1.06-17.05,1.58-5.69,.47-11.37,1.03-17.07,1.37l-17.09,1.07Z"/></g><g><line class="cls-2" x1="1167.1" y1="1639.83" x2="1047.37" y2="1002.89"/><path class="cls-2" d="M1133.31,1645.65c-11.03-107.62-23.71-215-38.03-322.11-14.32-107.12-30.3-214.08-47.9-320.66,44.62,211.51,95.72,421.53,153.33,630.1-11.18,2.41-22.36,4.8-33.61,6.84-5.62,1.04-11.23,2.12-16.87,3.07l-16.92,2.75Z"/></g><g><line class="cls-2" x1="1274.9" y1="1613.95" x2="1102.61" y2="1026.79"/><path class="cls-2" d="M1241.86,1623.1c-20.16-100.15-41.85-199.93-65.05-299.29-23.21-99.39-47.96-198.46-74.2-297.03,62.4,194.35,130.74,386.66,205.03,577.02-10.87,3.5-21.75,7-32.74,10.14-5.49,1.59-10.97,3.22-16.47,4.74l-16.57,4.42Z"/></g><g><line class="cls-2" x1="1379.46" y1="1577.54" x2="1172.73" y2="1066.95"/><path class="cls-2" d="M1347.56,1589.9c-26.49-88.11-54.3-175.74-83.43-262.88-29.13-87.14-59.63-173.9-91.4-260.07,37.13,83.99,75.59,167.55,115.28,250.4,39.69,82.86,80.67,165.17,122.92,246.89l-15.67,6.79c-5.23,2.26-10.53,4.35-15.81,6.51-5.29,2.12-10.55,4.3-15.89,6.33l-16.01,6.03Z"/></g><g><line class="cls-2" x1="1479.5" y1="1531.18" x2="1228.38" y2="1052.33"/><path class="cls-2" d="M1449.13,1546.54c-68.66-167.1-142.23-331.77-220.76-494.21,44.46,78.43,90.13,156.23,136.98,233.38,46.81,77.08,94.81,153.5,143.97,229.24l-14.81,8.26-15.02,7.96c-9.98,5.34-20.19,10.34-30.37,15.36Z"/></g><g><line class="cls-2" x1="1574.15" y1="1475.53" x2="1134.14" y2="804.35"/><path class="cls-2" d="M1545.45,1493.77c-65.12-117.02-131.96-233-200.51-347.9-68.55-114.9-138.79-228.71-210.79-341.51,149.36,221.9,305.55,439.47,468.2,652.06-18.59,13.1-37.64,25.43-56.9,37.36Z"/></g><g><line class="cls-2" x1="1663.36" y1="1410.57" x2="1123.36" y2="741.14"/><path class="cls-2" d="M1636.43,1431.64c-82-117.7-165.81-234.18-251.32-349.26-85.54-115.11-172.73-228.79-261.75-341.24,181.98,221.42,370.94,437.51,566.3,647.51-8.6,7.52-17.48,14.68-26.3,21.92-4.4,3.63-8.93,7.08-13.41,10.61-4.5,3.5-8.98,7.03-13.52,10.45Z"/></g><g><line class="cls-2" x1="1746.02" y1="1336.84" x2="1412.12" y2="998.08"/><path class="cls-2" d="M1721.23,1360.52c-49.66-61.99-100.35-123.3-151.86-183.7-51.54-60.43-103.91-119.96-157.26-178.75,57.96,54.14,116.79,107.42,176.47,159.83,29.83,26.2,59.9,52.2,90.14,77.94,30.23,25.73,60.67,51.24,91.32,76.53l-5.91,6.21c-1.98,2.06-4.01,4.08-6.01,6.11l-12.1,12.14c-4.04,4.04-8.21,7.95-12.32,11.92-4.15,3.93-8.24,7.92-12.46,11.77Z"/></g><g><line class="cls-2" x1="1821.01" y1="1255.17" x2="1116.41" y2="670.09"/><path class="cls-2" d="M1798.7,1281.21c-110.56-105.34-222.81-209.03-336.52-310.89-113.75-101.88-228.95-201.91-345.77-300.24,236.09,193.41,478.37,379.72,726.07,558.36-6.95,9.07-14.24,17.87-21.47,26.72-3.61,4.43-7.37,8.73-11.08,13.09-3.73,4.33-7.42,8.7-11.23,12.95Z"/></g><g><line class="cls-2" x1="1887.45" y1="1166.51" x2="1338.14" y2="795.9"/><path class="cls-2" d="M1867.88,1194.62c-86.27-69.18-173.62-137.05-261.9-203.5-88.31-66.47-177.52-131.5-267.83-195.23,185.65,119.67,375.18,233.76,568.01,341.94-6.02,9.69-12.36,19.18-18.69,28.68-3.14,4.77-6.44,9.42-9.7,14.11-3.28,4.67-6.53,9.37-9.87,13.99Z"/></g><g><line class="cls-2" x1="1944.69" y1="1071.87" x2="1502.57" y2="833.49"/><path class="cls-2" d="M1928.04,1101.73c-69.62-46.91-139.89-92.73-210.79-137.43-35.45-22.35-71.06-44.42-106.83-66.22-35.77-21.8-71.75-43.34-107.85-64.59,75.16,36.96,150.93,72.79,227.28,107.49,76.34,34.69,153.16,68.19,230.59,100.56-10.11,20.41-21.08,40.4-32.4,60.19Z"/></g><g><line class="cls-2" x1="1992.23" y1="972.21" x2="1400.05" y2="724.73"/><path class="cls-2" d="M1978.62,1003.51c-190.17-98.86-382.96-191.76-578.57-278.78,99.62,39,199.9,76.5,300.74,112.48,100.79,35.96,202.17,70.4,304.12,103.32l-6.18,15.9-6.5,15.78c-4.3,10.53-9,20.9-13.62,31.3Z"/></g><g><line class="cls-2" x1="2029.7" y1="868.48" x2="1569.96" y2="727.52"/><path class="cls-2" d="M2019.22,900.93c-74.06-31.2-148.54-61.25-223.4-90.14-74.84-28.89-150.22-56.67-225.87-83.27,77.55,20.38,155.56,39.63,233.72,57.65,78.19,18.03,156.71,34.89,235.53,50.57l-4.62,16.41c-1.53,5.47-3.25,10.89-4.9,16.33-1.69,5.43-3.3,10.88-5.1,16.27l-5.38,16.18Z"/></g><g><line class="cls-2" x1="2056.8" y1="761.62" x2="1159.47" y2="580.43"/><path class="cls-2" d="M2049.55,794.94c-147.29-40.27-295.12-78.28-443.44-114.03-148.39-35.76-297.3-69.27-446.63-100.49,299.62,58.36,600.79,107.58,903.6,147.67-2.01,11.19-3.93,22.4-6.27,33.53l-3.46,16.7-3.79,16.62Z"/></g><g><line class="cls-2" x1="2073.3" y1="652.55" x2="1248.65" y2="569.11"/><path class="cls-2" d="M2069.34,686.46c-136.23-23.73-272.68-45.36-409.51-64.93-136.83-19.56-273.91-37.04-411.18-52.42,137.64,12.44,275.39,22.77,413.32,31.01,137.93,8.24,276.05,14.38,414.29,18.41-1.72,22.7-3.85,45.38-6.92,67.92Z"/></g><g><line class="cls-2" x1="2079" y1="542.23" x2="1306.18" y2="540.61"/><path class="cls-2" d="M2078.38,576.41c-257.01-19.8-514.68-31.75-772.2-35.8,128.87-1.49,257.56-4.95,386.32-10.38,128.72-5.43,257.49-12.83,386.05-22.2,.19,5.7,.23,11.4,.33,17.1,.05,5.7,.2,11.4,.12,17.1-.1,11.4-.16,22.8-.62,34.18Z"/></g><g><line class="cls-2" x1="2073.76" y1="431.69" x2="1252.73" y2="511.64"/><path class="cls-2" d="M2076.53,465.83c-68.77,1.71-137.52,3.95-206.23,6.71-68.73,2.77-137.46,6.06-206.12,9.88-137.34,7.64-274.51,17.38-411.45,29.22,136.71-14.81,273.12-31.7,409.35-50.71,136.2-19,272.25-40.11,407.82-63.29,.79,5.66,1.38,11.34,2.03,17.01,.62,5.68,1.29,11.35,1.83,17.03l1.5,17.06,.7,8.53,.56,8.54Z"/></g><g><line class="cls-2" x1="2057.55" y1="322.05" x2="1229.06" y2="487.07"/><path class="cls-2" d="M2063.7,355.79c-69.9,8.8-139.69,18.13-209.44,28-69.76,9.88-139.43,20.29-209,31.23-139.14,21.89-277.89,45.91-416.21,72.05,137.79-28.85,275.14-59.82,412.05-92.92,136.9-33.09,273.38-68.32,409.2-105.62,1.35,5.56,2.52,11.15,3.72,16.74,1.19,5.59,2.38,11.18,3.52,16.78l3.18,16.85,1.55,8.43c.5,2.81,.95,5.64,1.42,8.45Z"/></g><g><line class="cls-2" x1="2030.51" y1="214.53" x2="1363.09" y2="418.23"/><path class="cls-2" d="M2039.98,247.48c-113.68,24.98-227.02,51.73-339.87,80.19-112.84,28.47-225.2,58.65-337.02,90.55,110.59-35.98,220.63-73.67,330.14-113.06,109.5-39.39,218.49-80.5,326.74-123.24,1.89,5.39,3.61,10.83,5.36,16.27l5.17,16.34,4.84,16.45c1.6,5.48,3.18,10.98,4.63,16.51Z"/></g><g><line class="cls-2" x1="1992.98" y1="110.4" x2="1291.1" y2="403.38"/><path class="cls-2" d="M2005.64,142.17c-60.22,19.95-120.26,40.34-180.15,61.21-59.91,20.87-119.65,42.2-179.21,63.97-119.12,43.55-237.53,88.9-355.17,136.03,116.28-50.52,231.74-102.79,346.48-156.85,114.7-54.04,228.72-109.91,341.75-167.44,2.41,5.15,4.62,10.4,6.91,15.61,2.26,5.23,4.55,10.44,6.74,15.7l6.44,15.84,3.18,7.93,3.05,7.99Z"/></g><g><line class="cls-2" x1="1945.57" y1="10.93" x2="1541.48" y2="228.32"/><path class="cls-2" d="M1961.21,41.13c-141.81,58.16-281.92,120.69-419.73,187.2,65.81-39.22,130.92-79.37,195.53-120.55,64.59-41.17,128.62-83.34,192.06-126.5l8.32,14.78c2.75,4.94,5.54,9.85,8.17,14.88,5.3,10.02,10.65,19.99,15.64,30.2Z"/></g><g><line class="cls-2" x1="1911.64" y1="-47.84" x2="1200.57" y2="391.67"/><path class="cls-2" d="M1929.07-18.73c-123.52,64.79-246.01,131.39-367.43,199.79-121.43,68.41-241.73,138.56-361.07,210.6,235.41-148.96,466.59-305.14,692.74-468.15,6.34,9.43,12.3,19.05,18.33,28.65,3.04,4.79,5.89,9.66,8.8,14.51l8.64,14.6Z"/></g><g><line class="cls-2" x1="1849.2" y1="-138.63" x2="1486.9" y2="137.79"/><path class="cls-2" d="M1869.49-111.16c-65.01,39.55-129.55,80.16-193.3,121.64-63.79,41.51-126.85,83.92-189.28,127.31,58.31-48.73,115.91-98.39,172.78-148.95,28.44-25.28,56.69-50.79,84.77-76.52,28.05-25.72,55.9-51.64,83.57-77.8l5.4,6.64,5.28,6.72,10.5,13.49c3.46,4.52,6.83,9.11,10.23,13.68,3.36,4.59,6.81,9.13,10.06,13.79Z"/></g><g><line class="cls-2" x1="1777.79" y1="-223.2" x2="1189" y2="326.38"/><path class="cls-2" d="M1800.76-197.78c-104.62,84.21-208.02,170.08-309.99,257.45-101.98,87.38-202.57,176.28-301.76,266.71,97.02-92.73,192.64-186.97,286.83-282.71,94.19-95.74,186.95-192.96,278.15-291.56,4.07,4.02,8.03,8.13,11.98,12.26l11.82,12.41,11.56,12.65c3.83,4.23,7.69,8.45,11.41,12.78Z"/></g><g><line class="cls-2" x1="1698.19" y1="-300.38" x2="1215.47" y2="249.77"/><path class="cls-2" d="M1723.6-277.35c-87.38,85.23-173.5,171.86-258.2,259.73-84.71,87.88-168.01,177-249.92,267.39,78.96-92.95,156.51-187.16,232.62-282.57,38.06-47.71,75.76-95.72,113.1-144.03,37.33-48.3,74.27-96.86,110.86-145.74,2.21,1.82,4.43,3.61,6.61,5.45l6.53,5.56,13,11.18c4.28,3.79,8.53,7.61,12.77,11.44,4.24,3.83,8.5,7.65,12.63,11.59Z"/></g><g><line class="cls-2" x1="1611.34" y1="-369.24" x2="1181.91" y2="231.43"/><path class="cls-2" d="M1638.9-348.87c-79.12,94.35-156.86,190.01-233.02,286.73-76.19,96.74-150.82,194.57-223.96,293.57,69.98-101.21,138.43-203.52,205.33-306.9,33.45-51.69,66.51-103.66,99.17-155.87,32.64-52.19,64.9-104.64,96.75-157.36l7.12,4.76,7.04,4.88,14.02,9.83c4.65,3.31,9.23,6.72,13.84,10.1,4.59,3.41,9.21,6.75,13.72,10.27Z"/></g><g><line class="cls-2" x1="1518.23" y1="-429.04" x2="1185.11" y2="150.76"/><path class="cls-2" d="M1547.63-411.56c-63.29,91.87-125.21,184.77-185.63,278.48-60.44,93.75-119.36,188.28-176.9,283.83,107.04-195.49,208.22-394.49,303.22-596.36,10.09,5.3,19.99,10.94,29.91,16.56,4.97,2.78,9.84,5.76,14.75,8.65,4.89,2.93,9.81,5.82,14.65,8.83Z"/></g><g><line class="cls-2" x1="1419.84" y1="-479.27" x2="1096.99" y2="238.37"/><path class="cls-2" d="M1450.78-464.82c-62.56,115.45-123.34,231.8-182.3,349-58.96,117.19-116.11,235.23-171.49,354.19,52.26-120.28,102.69-241.4,151.3-363.3,48.6-121.9,95.32-244.47,140.21-367.85,21.06,8.61,41.76,18.11,62.28,27.97Z"/></g><g><line class="cls-2" x1="1317.14" y1="-519.52" x2="1024.58" y2="350.62"/><path class="cls-2" d="M1349.3-508.18c-116.99,283.09-225.22,569.32-324.73,858.8,47.78-145.34,93.36-291.45,136.72-438.25,43.34-146.73,84.46-294.17,123.36-442.26l16.29,5.03,16.19,5.35c10.81,3.53,21.47,7.48,32.17,11.33Z"/></g><g><line class="cls-2" x1="1102.48" y1="-568.89" x2="1001.59" y2="216.55"/><path class="cls-2" d="M1136.25-564.03c-26.41,129.45-50.84,259.23-73.28,389.31-22.45,130.14-42.92,260.59-61.39,391.27,30.33-262.33,52.65-525.38,66.98-789.29,11.32,1.2,22.64,2.32,33.91,3.86l16.91,2.26,16.86,2.6Z"/></g><g><line class="cls-2" x1="992.4" y1="-577.55" x2="972.23" y2="115.09"/><path class="cls-2" d="M1026.54-576.02c-12.57,114.96-23.38,229.99-32.43,345.21-9.05,115.23-16.35,230.55-21.88,345.91,.6-57.75,.75-115.55,.47-173.31-.28-57.75-1.01-115.5-2.18-173.26-2.34-115.52-6.44-231.06-12.3-346.58,22.8,.09,45.59,.58,68.32,2.03Z"/></g><g><line class="cls-2" x1="881.82" y1="-575.3" x2="945.81" y2="338.19"/><path class="cls-2" d="M916-577.15c.58,305.38,10.52,610.76,29.81,915.34-11.69-152.24-25.7-304.15-42.06-455.95-16.35-151.76-35.05-303.38-56.06-454.65,5.68-.58,11.37-1.05,17.06-1.55,5.69-.48,11.37-1.01,17.07-1.35,11.39-.74,22.78-1.48,34.18-1.85Z"/></g><g><line class="cls-2" x1="771.82" y1="-562.08" x2="881.07" y2="76.74"/><path class="cls-2" d="M805.7-567.32c18.52,215.44,43.68,430.4,75.38,644.05-20.57-106.12-42.76-211.79-66.59-317.24-23.83-105.41-49.3-210.6-76.38-315.28,5.59-1.18,11.22-2.18,16.84-3.25,5.62-1.03,11.23-2.13,16.87-3.05,11.28-1.84,22.55-3.75,33.88-5.23Z"/></g><g><line class="cls-2" x1="663.59" y1="-537.98" x2="826.23" y2="51.93"/><path class="cls-2" d="M696.79-546.56c9.25,50.22,18.89,100.35,28.91,150.4,10.02,50.05,20.44,100.06,31.23,149.95,21.58,99.78,44.69,199.18,69.3,298.15-29.6-97.67-60.67-194.78-93.27-291.53-32.59-96.71-66.71-193.06-102.27-288.76,5.44-1.73,10.94-3.28,16.42-4.91,5.49-1.58,10.96-3.23,16.48-4.71l16.57-4.41c2.77-.72,5.53-1.46,8.3-2.15l8.33-2.02Z"/></g><g><line class="cls-2" x1="558.41" y1="-503.26" x2="756.79" y2="10.63"/><path class="cls-2" d="M590.54-515.08c50.03,176.93,105.55,352.42,166.25,525.71-35.78-84.67-72.8-168.64-111.16-252.19-38.34-83.51-78.02-166.54-118.92-248.91,5.24-2.22,10.54-4.34,15.82-6.49,5.29-2.11,10.55-4.31,15.9-6.31,10.68-4.02,21.32-8.13,32.13-11.82Z"/></g><g><line class="cls-2" x1="457.54" y1="-458.48" x2="700.93" y2="24.35"/><path class="cls-2" d="M488.2-473.34c65.87,168.06,136.89,334.13,212.73,497.69-43.22-79.19-87.6-157.66-133.19-235.5-45.59-77.84-92.37-155.05-140.34-231.59,19.96-10.71,40.16-21.05,60.8-30.6Z"/></g><g><line class="cls-2" x1="362.03" y1="-404.33" x2="791.18" y2="273.84"/><path class="cls-2" d="M390.99-422.06c63.23,118.01,128.2,235.02,194.88,350.98,66.72,116.03,135.17,231.02,205.31,344.91C645.32,49.45,492.81-170.39,333.54-385.72c9.44-6.3,18.87-12.64,28.49-18.62l14.4-9.02,14.56-8.7Z"/></g><g><line class="cls-2" x1="271.86" y1="-340.87" x2="800.88" y2="337.27"/><path class="cls-2" d="M299.11-361.48C379.21-242.44,461.08-124.68,544.7-8.23c83.61,116.44,169.06,231.69,256.18,345.5C711.69,225.07,620.7,114.14,528.11,4.71c-92.6-109.44-186.91-217.49-282.9-324.13l13.23-10.85c4.42-3.6,8.94-7.07,13.42-10.59,4.5-3.49,8.97-7.04,13.54-10.43l13.72-10.18Z"/></g><g><line class="cls-2" x1="188.05" y1="-268.53" x2="516.35" y2="75.66"/><path class="cls-2" d="M213.2-291.81c97.38,125.71,198.4,248.17,303.15,367.47-57.07-55.09-115.07-109.38-173.86-162.74-58.77-53.34-118.41-105.81-178.89-157.41l12.11-12.14c4.07-4.01,8.22-7.94,12.34-11.9,8.22-7.95,16.68-15.62,25.15-23.28Z"/></g><g><line class="cls-2" x1="111.73" y1="-188.11" x2="806.64" y2="408.45"/><path class="cls-2" d="M134.46-213.79C352.18,.57,576.27,208.01,806.64,408.45c-116.46-98.65-234.52-195.56-353.99-290.59C333.18,22.84,212.22-70.38,89.8-161.76l10.84-13.28c3.64-4.41,7.38-8.72,11.09-13.07,7.39-8.72,15.05-17.21,22.72-25.68Z"/></g><g><line class="cls-2" x1="43.82" y1="-100.54" x2="587" y2="279.01"/><path class="cls-2" d="M63.87-128.33C149.01-57.73,235.19,11.52,322.36,79.4c87.17,67.87,175.46,134.46,264.64,199.61-91.84-61.35-184.74-121.37-278.43-179.87C214.86,40.62,120.2-16.5,24.63-72.19l9.47-14.26c3.14-4.76,6.47-9.41,9.72-14.1,3.29-4.67,6.52-9.37,9.89-13.98l10.15-13.8Z"/></g><g><line class="cls-2" x1="-14.98" y1="-6.82" x2="423.2" y2="238.72"/><path class="cls-2" d="M2.19-36.4C71.01,11.63,140.5,58.58,210.65,104.41c70.19,45.87,141.07,90.65,212.56,134.31C273.99,162.31,122.58,90.52-31.25,23.24-25.91,13.17-20.63,3.08-14.98-6.82c2.8-4.97,5.59-9.93,8.44-14.87L2.19-36.4Z"/></g><g><line class="cls-2" x1="-64.16" y1="92.07" x2="523.94" y2="349.12"/><path class="cls-2" d="M-50,61C44.24,111.96,139.15,161.43,234.83,209.46c95.7,48.04,192.08,94.6,289.11,139.66-49.5-20.31-99.18-40.25-148.99-59.81-49.79-19.55-99.74-38.72-149.85-57.52C124.89,194.2,24.05,158.11-77.38,123.54l6.51-15.77,3.29-7.87,3.42-7.82,6.93-15.6c2.35-5.18,4.8-10.32,7.22-15.47Z"/></g><g><line class="cls-2" x1="-103.32" y1="195.19" x2="354.08" y2="343.57"/><path class="cls-2" d="M-92.28,162.92c146.99,64.75,295.96,125.03,446.37,180.65-77.3-21.66-154.79-42.1-232.72-61.41-77.9-19.3-156.21-37.44-234.72-54.38,1.56-5.46,3.27-10.89,4.92-16.32,1.69-5.43,3.3-10.88,5.12-16.26,3.57-10.79,7.12-21.59,11.03-32.27Z"/></g><g><line class="cls-2" x1="-132.16" y1="301.59" x2="762.12" y2="497.29"/><path class="cls-2" d="M-124.34,268.4c73.3,21.32,146.74,42.08,220.32,62.27,73.61,20.2,147.37,39.85,221.26,58.92,147.78,38.16,296.09,74.06,444.88,107.69-149.27-31.59-298.98-60.91-449.19-87.96-150.19-27.05-300.9-51.84-451.85-74.31,.99-5.6,2.15-11.16,3.28-16.73,1.15-5.57,2.27-11.14,3.48-16.69l3.8-16.62,1.94-8.3,2.08-8.27Z"/></g><g><line class="cls-2" x1="-150.42" y1="410.36" x2="672.77" y2="507.18"/><path class="cls-2" d="M-145.89,376.54c135.75,25.92,271.98,49.79,408.44,71.56,136.48,21.78,273.2,41.47,410.22,59.08-137.34-14.66-274.93-27.23-412.74-37.71-68.9-5.24-137.87-9.96-206.86-14.15-68.96-4.19-137.98-7.85-207.03-10.99l.73-8.51,.87-8.49,1.84-16.97c.66-5.65,1.42-11.29,2.16-16.93,.75-5.64,1.47-11.28,2.36-16.9Z"/></g><g><line class="cls-2" x1="-157.88" y1="520.55" x2="614.81" y2="534.77"/><path class="cls-2" d="M-156.74,486.39c128.34,11.99,256.93,22.02,385.52,30.08,128.63,8.06,257.22,14.16,386.03,18.29-257.56-1.22-515.41,5.44-772.77,19.98-.22-11.4-.06-22.8,.09-34.2,.04-5.7,.3-11.39,.47-17.08,.21-5.69,.37-11.39,.68-17.07Z"/></g><g><line class="cls-2" x1="-154.42" y1="631.13" x2="667.81" y2="564.62"/><path class="cls-2" d="M-156.69,596.97c137.63-1.18,275.19-4.46,412.61-9.85,137.41-5.39,274.68-12.88,411.9-22.49-136.9,12.56-273.64,27.23-410.18,44.01-136.55,16.77-272.73,35.63-408.75,56.6-2.63-22.7-4.31-45.48-5.57-68.26Z"/></g><g><line class="cls-2" x1="-140.01" y1="740.99" x2="691.08" y2="589.59"/><path class="cls-2" d="M-145.66,707.18c140.11-15.31,279.92-32.77,419.37-52.37,69.73-9.8,139.37-20.13,208.91-31,69.58-10.87,139.07-22.28,208.46-34.22-138.25,26.59-276.13,55.31-413.59,86.16-137.43,30.84-274.34,63.8-410.83,98.88-1.18-5.59-2.39-11.18-3.5-16.79l-3.17-16.85-1.54-8.43-1.4-8.46-2.71-16.93Z"/></g><g><line class="cls-2" x1="-114.73" y1="848.94" x2="555.94" y2="656.22"/><path class="cls-2" d="M-123.71,815.86c114.16-23.13,227.89-48.01,341.16-74.61,56.64-13.3,113.15-27.03,169.56-41.2,56.44-14.18,112.75-28.78,168.95-43.82-111.17,34.17-221.86,70.06-332.03,107.66-110.13,37.59-219.66,76.87-328.66,117.85-1.73-5.44-3.49-10.88-5.15-16.34l-4.83-16.45-2.38-8.24-2.23-8.28-4.38-16.58Z"/></g><g><line class="cls-2" x1="-78.9" y1="953.72" x2="627.66" y2="672.21"/><path class="cls-2" d="M-91.1,921.75c121.12-37.94,241.6-77.71,361.39-119.3,59.89-20.79,119.62-42.04,179.16-63.74,59.57-21.71,118.99-43.88,178.21-66.5-117.07,48.6-233.43,99.01-349.04,151.21-115.62,52.2-230.35,106.12-344.37,161.84-9.15-20.85-17.46-42.1-25.35-63.51Z"/></g><g><line class="cls-2" x1="-33.09" y1="1054.06" x2="374.44" y2="843.18"/><path class="cls-2" d="M-48.3,1023.6c71.44-27.97,142.41-57,212.86-87.07,70.47-30.08,140.36-61.16,209.88-93.35-132.68,76.22-263.36,156.62-391.44,240.8-5.58-9.82-10.8-19.9-16.08-29.92-2.66-5-5.15-10.11-7.69-15.18l-7.52-15.28Z"/></g></g></g></g><path class="cls-7" d="M.5,.5V1080.5H1920.5V.5H.5ZM1900.5,1060.5H20.5V20.5H1900.5V1060.5Z"/></g></svg>